<svg width="150" height="53" viewBox="0 0 150 53" fill="none" xmlns="http://www.w3.org/2000/svg">
<path d="M144.75 23.0549H143.968V25.0795H143.282V23.0549H142.5V22.4719H144.761L144.75 23.0549Z" fill="#669D74"/>
<path d="M145.05 22.4719H146.068L146.518 24.2103H146.528L146.978 22.4719H147.996V25.0795H147.353V23.0973H147.343L146.786 25.0795H146.261L145.703 23.0973H145.693V25.0795H145.05V22.4719Z" fill="#669D74"/>
<path d="M2.03613 7.09131C26.3897 -2.78789 75.2147 5.63911 97.1254 20.6169C67.779 10.2607 11.3897 5.37411 2.0897 19.7159C2.0897 10.3137 2.03613 7.09131 2.03613 7.09131Z" fill="#669D74"/>
<path d="M148.072 46.3008C123.772 56.18 79.0181 46.5128 64.6074 36.1036C90.7824 45.0818 138.729 48.018 148.018 33.6868C148.029 43.0784 148.072 46.3008 148.072 46.3008Z" fill="#669D74"/>
<path d="M12.0535 25.2066C12.2035 25.2172 12.3427 25.2278 12.4713 25.2278C12.5999 25.2278 12.7285 25.2278 12.8677 25.2278C13.2642 25.2278 13.6392 25.1748 13.9927 25.0688C14.3463 24.9628 14.6677 24.8038 14.9356 24.5918C15.2035 24.3798 15.4177 24.1254 15.5785 23.818C15.7392 23.5106 15.8142 23.1396 15.8142 22.7262C15.8142 21.9206 15.557 21.3058 15.032 20.8924C14.507 20.479 13.8535 20.267 13.0606 20.267C12.5463 20.267 12.1177 20.3624 11.7535 20.532C11.3892 20.7122 11.0892 20.956 10.8427 21.2528C10.5963 21.5496 10.4249 21.91 10.307 22.3128C10.1892 22.7156 10.1356 23.1396 10.1356 23.5848H8.27132C8.30346 22.8534 8.42132 22.175 8.6356 21.5708C8.84989 20.9666 9.14989 20.4472 9.54632 20.0126C9.94275 19.578 10.4356 19.2388 11.0249 18.995C11.6142 18.7512 12.2999 18.624 13.0713 18.624C13.7463 18.624 14.3677 18.7088 14.9356 18.8678C15.5142 19.0374 16.007 19.2812 16.4356 19.6098C16.8535 19.9384 17.1856 20.3624 17.432 20.8818C17.6677 21.4012 17.7963 22.016 17.7963 22.7156C17.7963 23.394 17.5927 23.9982 17.1749 24.5388C16.757 25.0794 16.2535 25.4822 15.6535 25.7578V25.8002C16.5963 26.0016 17.3035 26.4468 17.7642 27.1146C18.2249 27.793 18.4499 28.588 18.4499 29.5102C18.4499 30.2734 18.3106 30.9518 18.0213 31.5348C17.732 32.1178 17.357 32.6054 16.8749 32.9976C16.3927 33.3898 15.8249 33.6866 15.182 33.888C14.5285 34.0894 13.8427 34.1954 13.1142 34.1954C12.332 34.1954 11.6142 34.0788 10.9713 33.8562C10.3285 33.6336 9.78203 33.305 9.33203 32.881C8.88203 32.457 8.53918 31.9376 8.29275 31.3122C8.05703 30.6974 7.93917 29.9872 7.94989 29.1922H9.80346C9.8356 30.1886 10.1249 30.9942 10.682 31.6302C11.2392 32.2556 12.0427 32.5736 13.1035 32.5736C13.5535 32.5736 13.982 32.51 14.3892 32.3722C14.7963 32.2344 15.1499 32.0436 15.4606 31.7892C15.7713 31.5348 16.007 31.2274 16.1892 30.8564C16.3713 30.4854 16.4677 30.072 16.4677 29.6162C16.4677 29.1392 16.382 28.7152 16.2106 28.3548C16.0392 27.9838 15.8035 27.6764 15.5142 27.422C15.2249 27.1676 14.8713 26.9874 14.4642 26.8602C14.057 26.733 13.6285 26.68 13.1785 26.68C12.782 26.68 12.4177 26.7012 12.0642 26.7436V25.2066H12.0535Z" fill="#669D74"/>
<path d="M19.9932 18.5288H25.3503C27.7503 18.5288 29.6039 19.133 30.9003 20.3414C32.1967 21.5498 32.8503 23.3942 32.8503 25.8746C32.8503 27.1678 32.7003 28.3232 32.411 29.3196C32.1217 30.3266 31.6717 31.164 31.061 31.853C30.4503 32.542 29.6682 33.0614 28.7253 33.4218C27.7824 33.7822 26.6574 33.9624 25.361 33.9624H20.0039V18.5288H19.9932ZM22.0717 32.2346H25.5217C25.7574 32.2346 26.0467 32.2134 26.4003 32.1816C26.7539 32.1498 27.1182 32.0544 27.5146 31.9272C27.911 31.7894 28.2967 31.588 28.6825 31.3336C29.0682 31.0792 29.411 30.7188 29.7217 30.2736C30.0324 29.8284 30.2789 29.2666 30.4717 28.5988C30.6646 27.931 30.7717 27.1148 30.7717 26.1714C30.7717 25.2492 30.6753 24.4224 30.5039 23.691C30.3217 22.9596 30.0217 22.3448 29.6039 21.8466C29.186 21.3378 28.6503 20.9562 27.9967 20.6806C27.3432 20.405 26.5289 20.2672 25.5753 20.2672H22.0717V32.2346Z" fill="#669D74"/>
<path d="M45.6967 23.7227C45.6432 23.3305 45.5039 22.9807 45.3003 22.6521C45.0967 22.3235 44.8396 22.0479 44.5396 21.7935C44.2289 21.5497 43.886 21.3589 43.5003 21.2211C43.1146 21.0833 42.7074 21.0197 42.2896 21.0197C41.5182 21.0197 40.8646 21.1681 40.3182 21.4649C39.7824 21.7617 39.3432 22.1539 39.011 22.6521C38.6789 23.1503 38.4324 23.7121 38.2824 24.3481C38.1324 24.9841 38.0575 25.6413 38.0575 26.3197C38.0575 26.9663 38.1324 27.6023 38.2824 28.2065C38.4324 28.8213 38.6789 29.3725 39.011 29.8601C39.3432 30.3477 39.7824 30.7399 40.3182 31.0367C40.8539 31.3335 41.5075 31.4819 42.2896 31.4819C43.3396 31.4819 44.1539 31.1639 44.7539 30.5173C45.3432 29.8813 45.7074 29.0439 45.836 28.0157H49.1574C49.0717 28.9803 48.8467 29.8495 48.4824 30.6339C48.1182 31.4077 47.636 32.0755 47.036 32.6267C46.436 33.1779 45.7396 33.5913 44.936 33.8881C44.1324 34.1849 43.2539 34.3333 42.2896 34.3333C41.0789 34.3333 39.9967 34.1213 39.0539 33.7079C38.111 33.2945 37.3074 32.7221 36.6539 32.0013C36.0003 31.2805 35.4967 30.4325 35.1432 29.4467C34.7896 28.4715 34.6182 27.4221 34.6182 26.3091C34.6182 25.1749 34.7896 24.1043 35.1432 23.1079C35.4967 22.1115 36.0003 21.2529 36.6539 20.5109C37.3074 19.7689 38.111 19.1965 39.0539 18.7831C39.9967 18.3697 41.0789 18.1577 42.2896 18.1577C43.1467 18.1577 43.961 18.2849 44.7217 18.5287C45.4824 18.7725 46.1682 19.1329 46.7789 19.5993C47.3789 20.0657 47.8824 20.6487 48.2789 21.3377C48.6753 22.0267 48.9217 22.8217 49.0182 23.7121H45.6967V23.7227Z" fill="#669D74"/>
<path d="M49.7461 28.3866C49.7461 27.4962 49.8854 26.68 50.164 25.9486C50.4425 25.2172 50.839 24.6024 51.3425 24.0936C51.8568 23.5848 52.4675 23.182 53.1747 22.9064C53.8925 22.6202 54.6854 22.4824 55.5747 22.4824C56.464 22.4824 57.2675 22.6202 57.9854 22.9064C58.7032 23.1926 59.3247 23.5848 59.8282 24.0936C60.3425 24.6024 60.7282 25.2278 61.0068 25.9486C61.2854 26.68 61.4247 27.4856 61.4247 28.3866C61.4247 29.277 61.2854 30.0826 61.0068 30.8034C60.7282 31.5242 60.3318 32.139 59.8282 32.6478C59.314 33.1566 58.7032 33.5594 57.9854 33.835C57.2675 34.1212 56.464 34.259 55.5747 34.259C54.6854 34.259 53.8818 34.1212 53.1747 33.835C52.4568 33.5488 51.8461 33.1566 51.3425 32.6478C50.8282 32.139 50.4425 31.5242 50.164 30.8034C49.8854 30.0932 49.7461 29.2876 49.7461 28.3866ZM52.8532 28.3866C52.8532 28.8318 52.8961 29.2664 52.9818 29.6904C53.0675 30.1144 53.2175 30.496 53.4318 30.8352C53.6461 31.1744 53.9247 31.4394 54.2782 31.6408C54.6318 31.8422 55.0604 31.9482 55.5854 31.9482C56.1104 31.9482 56.5497 31.8422 56.9032 31.6408C57.2568 31.4394 57.5461 31.1638 57.7604 30.8352C57.9747 30.496 58.1247 30.1144 58.2104 29.6904C58.2961 29.2664 58.339 28.8318 58.339 28.3866C58.339 27.9414 58.2961 27.4962 58.2104 27.0722C58.1247 26.6376 57.9747 26.256 57.7604 25.9274C57.5461 25.5988 57.2675 25.3232 56.9032 25.1218C56.5497 24.9098 56.1104 24.8038 55.5854 24.8038C55.0604 24.8038 54.6211 24.9098 54.2782 25.1218C53.9247 25.3338 53.6461 25.5988 53.4318 25.9274C53.2175 26.256 53.0675 26.6376 52.9818 27.0722C52.8961 27.5068 52.8532 27.9414 52.8532 28.3866Z" fill="#669D74"/>
<path d="M62.5605 22.79H65.4855V24.3058H65.5284C65.9355 23.7334 66.4284 23.2776 67.007 22.9702C67.5855 22.6522 68.2391 22.4932 68.9891 22.4932C69.707 22.4932 70.3605 22.631 70.9498 22.9172C71.5391 23.2034 71.9891 23.6804 72.2891 24.3588C72.6213 23.8712 73.082 23.4366 73.6605 23.0656C74.2391 22.6946 74.9141 22.5038 75.707 22.5038C76.307 22.5038 76.8534 22.578 77.3677 22.7158C77.882 22.8642 78.3105 23.0868 78.6748 23.4048C79.0391 23.7228 79.3177 24.1362 79.532 24.645C79.7355 25.1538 79.8427 25.7686 79.8427 26.4894V33.973H76.7355V27.6342C76.7355 27.2632 76.7248 26.9028 76.6927 26.5742C76.6605 26.2456 76.5855 25.9594 76.457 25.705C76.3284 25.4612 76.1355 25.2704 75.8784 25.122C75.6213 24.9736 75.2784 24.91 74.8391 24.91C74.3998 24.91 74.0463 24.9948 73.7784 25.1538C73.5105 25.3234 73.2963 25.5354 73.1463 25.8004C72.9963 26.0654 72.8891 26.3728 72.8355 26.712C72.782 27.0512 72.7605 27.3904 72.7605 27.7402V33.973H69.6534V27.6978C69.6534 27.3798 69.6427 27.0618 69.632 26.7226C69.6213 26.394 69.557 26.0866 69.4498 25.811C69.3427 25.5354 69.1605 25.3128 68.9034 25.1538C68.6463 24.9842 68.2713 24.91 67.7784 24.91C67.6177 24.91 67.4248 24.9418 67.1891 25.0054C66.9534 25.069 66.7284 25.1962 66.5034 25.3764C66.2784 25.5566 66.0855 25.811 65.9248 26.1502C65.7641 26.4894 65.6891 26.9346 65.6891 27.4752V33.9624H62.582V22.79H62.5605Z" fill="#669D74"/>
<path d="M81.4502 22.79H84.3752V24.3058H84.4181C84.8252 23.7334 85.3181 23.2776 85.8966 22.9702C86.4752 22.6522 87.1288 22.4932 87.8788 22.4932C88.5966 22.4932 89.2502 22.631 89.8395 22.9172C90.4288 23.2034 90.8788 23.6804 91.1788 24.3588C91.5109 23.8712 91.9716 23.4366 92.5502 23.0656C93.1288 22.6946 93.8038 22.5038 94.5966 22.5038C95.1966 22.5038 95.7431 22.578 96.2573 22.7158C96.7716 22.8642 97.2002 23.0868 97.5645 23.4048C97.9288 23.7228 98.2073 24.1362 98.4216 24.645C98.6252 25.1538 98.7323 25.7686 98.7323 26.4894V33.973H95.6252V27.6342C95.6252 27.2632 95.6145 26.9028 95.5823 26.5742C95.5502 26.2456 95.4752 25.9594 95.3466 25.705C95.2181 25.4612 95.0252 25.2704 94.7681 25.122C94.5109 24.9736 94.168 24.91 93.7288 24.91C93.2895 24.91 92.9359 24.9948 92.6681 25.1538C92.4002 25.3234 92.1859 25.5354 92.0359 25.8004C91.8859 26.0654 91.7788 26.3728 91.7252 26.712C91.6716 27.0512 91.6502 27.3904 91.6502 27.7402V33.973H88.5431V27.6978C88.5431 27.3798 88.5323 27.0618 88.5216 26.7226C88.5109 26.394 88.4466 26.0866 88.3395 25.811C88.2323 25.5354 88.0502 25.3128 87.7931 25.1538C87.5359 24.9842 87.1609 24.91 86.6681 24.91C86.5073 24.91 86.3145 24.9418 86.0788 25.0054C85.8431 25.069 85.6181 25.1962 85.3931 25.3764C85.1681 25.5566 84.9752 25.811 84.8145 26.1502C84.6538 26.4894 84.5788 26.9346 84.5788 27.4752V33.9624H81.4716V22.79H81.4502Z" fill="#669D74"/>
<path d="M102.814 29.1287C102.857 30.1145 103.114 30.8247 103.575 31.2805C104.046 31.7363 104.711 31.9589 105.589 31.9589C106.211 31.9589 106.757 31.7999 107.207 31.4925C107.657 31.1851 107.936 30.8565 108.043 30.5067H110.775C110.336 31.8317 109.671 32.7963 108.761 33.3793C107.861 33.9729 106.768 34.2697 105.482 34.2697C104.593 34.2697 103.789 34.1213 103.082 33.8351C102.364 33.5489 101.764 33.1461 101.271 32.6267C100.778 32.1073 100.393 31.4925 100.125 30.7717C99.8571 30.0509 99.7178 29.2559 99.7178 28.3973C99.7178 27.5599 99.8571 26.7861 100.136 26.0653C100.414 25.3445 100.811 24.7191 101.314 24.1997C101.828 23.6697 102.428 23.2563 103.136 22.9595C103.843 22.6521 104.625 22.5037 105.482 22.5037C106.446 22.5037 107.282 22.6839 108 23.0549C108.718 23.4259 109.296 23.9135 109.757 24.5389C110.218 25.1537 110.55 25.8639 110.753 26.6589C110.957 27.4539 111.032 28.2807 110.968 29.1499H102.814V29.1287ZM107.871 27.1783C107.721 26.4045 107.464 25.8109 107.1 25.4081C106.725 25.0053 106.168 24.8039 105.407 24.8039C104.914 24.8039 104.496 24.8887 104.175 25.0477C103.843 25.2173 103.586 25.4187 103.393 25.6625C103.2 25.9063 103.061 26.1713 102.975 26.4363C102.9 26.7119 102.846 26.9557 102.836 27.1677H107.871V27.1783Z" fill="#669D74"/>
<path d="M111.932 22.79H114.878V24.8676H114.921C115.071 24.5178 115.264 24.1998 115.51 23.903C115.757 23.6062 116.046 23.3518 116.367 23.1504C116.689 22.9384 117.032 22.7794 117.407 22.6628C117.782 22.5462 118.157 22.4932 118.532 22.4932C118.767 22.4932 118.992 22.525 119.207 22.5992V25.4506C119.057 25.4188 118.885 25.3976 118.682 25.3764C118.478 25.3552 118.285 25.3446 118.092 25.3446C117.524 25.3446 117.042 25.44 116.646 25.6308C116.249 25.8216 115.939 26.076 115.692 26.394C115.457 26.7226 115.285 27.1042 115.178 27.5388C115.071 27.9734 115.028 28.4398 115.028 28.938V33.973H111.921V22.79H111.932Z" fill="#669D74"/>
<path d="M127.21 26.7226C127.007 25.44 126.246 24.7934 124.918 24.7934C124.425 24.7934 124.007 24.91 123.675 25.1326C123.343 25.3552 123.064 25.6414 122.85 26.0018C122.635 26.3516 122.485 26.7438 122.4 27.1784C122.314 27.613 122.271 28.0264 122.271 28.4292C122.271 28.832 122.314 29.2454 122.4 29.6588C122.485 30.0722 122.625 30.4538 122.828 30.793C123.021 31.1322 123.289 31.4078 123.621 31.6304C123.953 31.8424 124.36 31.959 124.843 31.959C125.571 31.959 126.139 31.7576 126.546 31.3442C126.953 30.9308 127.21 30.3796 127.307 29.6906H130.296C130.093 31.1746 129.514 32.3088 128.55 33.0932C127.585 33.8776 126.353 34.2698 124.853 34.2698C123.996 34.2698 123.214 34.132 122.518 33.8458C121.821 33.5596 121.221 33.1674 120.728 32.6586C120.235 32.1498 119.85 31.5456 119.571 30.846C119.293 30.1464 119.153 29.3832 119.153 28.5458C119.153 27.6766 119.282 26.8816 119.539 26.1396C119.796 25.3976 120.171 24.751 120.664 24.2104C121.157 23.6698 121.768 23.2458 122.475 22.949C123.193 22.6416 124.007 22.4932 124.918 22.4932C125.593 22.4932 126.235 22.578 126.857 22.7476C127.478 22.9172 128.025 23.1822 128.507 23.532C128.989 23.8818 129.385 24.327 129.696 24.857C130.007 25.387 130.189 26.0124 130.232 26.712H127.21V26.7226Z" fill="#669D74"/>
<path d="M133.789 29.1287C133.832 30.1145 134.089 30.8247 134.55 31.2805C135.021 31.7363 135.685 31.9589 136.564 31.9589C137.185 31.9589 137.732 31.7999 138.182 31.4925C138.632 31.1851 138.91 30.8565 139.017 30.5067H141.75C141.31 31.8317 140.646 32.7963 139.735 33.3793C138.835 33.9729 137.742 34.2697 136.457 34.2697C135.567 34.2697 134.764 34.1213 134.057 33.8351C133.339 33.5489 132.739 33.1461 132.246 32.6267C131.753 32.1073 131.367 31.4925 131.1 30.7717C130.832 30.0509 130.692 29.2559 130.692 28.3973C130.692 27.5599 130.832 26.7861 131.11 26.0653C131.389 25.3445 131.785 24.7191 132.289 24.1997C132.803 23.6697 133.403 23.2563 134.11 22.9595C134.817 22.6521 135.6 22.5037 136.457 22.5037C137.421 22.5037 138.257 22.6839 138.975 23.0549C139.692 23.4259 140.271 23.9135 140.732 24.5389C141.192 25.1537 141.525 25.8639 141.728 26.6589C141.932 27.4539 142.007 28.2807 141.942 29.1499H133.789V29.1287ZM138.835 27.1783C138.685 26.4045 138.428 25.8109 138.064 25.4081C137.689 25.0053 137.132 24.8039 136.371 24.8039C135.878 24.8039 135.46 24.8887 135.139 25.0477C134.807 25.2173 134.55 25.4187 134.357 25.6625C134.164 25.9063 134.025 26.1713 133.939 26.4363C133.864 26.7119 133.81 26.9557 133.8 27.1677H138.835V27.1783Z" fill="#669D74"/>
</svg>
