<svg width="281" height="140" viewBox="0 0 281 140" fill="none" xmlns="http://www.w3.org/2000/svg">
<g clip-path="url(#clip0_1618_953)">
<path d="M201.494 0H41.3043C40.0368 0 39.0127 1.02944 39.0127 2.29325V96.0225H203.786V2.29325C203.786 1.02484 202.757 0 201.494 0Z" fill="black"/>
<path d="M39.0127 96.0269V110.048C39.0127 111.804 40.4364 113.233 42.1953 113.233H200.603C202.358 113.233 203.786 111.808 203.786 110.048V96.0269H39.0127Z" fill="url(#paint0_linear_1618_953)"/>
<path d="M101.714 113.261V135.803H141.09V113.261H101.714Z" fill="url(#paint1_linear_1618_953)"/>
<path style="mix-blend-mode:multiply" d="M101.709 113.261V128.84H141.085V113.261H101.709Z" fill="url(#paint2_linear_1618_953)"/>
<path d="M142.086 137.489L141.085 135.803H101.709L100.713 137.489H142.086Z" fill="url(#paint3_linear_1618_953)"/>
<path d="M142.086 137.489V138.68C142.086 139.029 141.806 139.309 141.457 139.309H101.342C100.993 139.309 100.713 139.029 100.713 138.68V137.489H142.086Z" fill="url(#paint4_linear_1618_953)"/>
<path d="M199.978 3.81006H42.8193V92.2726H199.978V3.81006Z" fill="#FFEAE9"/>
<path d="M199.978 69.8413H42.8193V92.2729H199.978V69.8413Z" fill="#EFDCDC"/>
<path d="M89.9297 134.732V91.3304C89.9297 88.7999 87.8797 86.7485 85.351 86.7485H68.9054C66.3766 86.7485 64.3267 88.7999 64.3267 91.3304V134.732C64.3267 137.263 66.3766 139.314 68.9054 139.314H85.351C87.8797 139.314 89.9297 137.263 89.9297 134.732Z" fill="url(#paint5_linear_1618_953)"/>
<path d="M89.7051 91.3308V134.728C89.7051 137.132 87.7533 139.085 85.3514 139.085H68.9104C66.5085 139.085 64.5567 137.132 64.5567 134.728V91.3308C64.5567 88.9273 66.5085 86.9741 68.9104 86.9741H85.3514C87.7533 86.9741 89.7051 88.9273 89.7051 91.3308Z" fill="black"/>
<path style="mix-blend-mode:screen" d="M89.6131 107.232V91.3307C89.6131 88.9777 87.7026 87.0659 85.3513 87.0659H68.9102C66.5589 87.0659 64.6484 88.9777 64.6484 91.3307V107.232H89.6085H89.6131Z" fill="url(#paint6_linear_1618_953)"/>
<path style="mix-blend-mode:screen" d="M64.6533 118.854V134.728C64.6533 137.081 66.5638 138.992 68.9151 138.992H85.3562C87.7075 138.992 89.618 137.081 89.618 134.728V118.854H64.6579H64.6533Z" fill="url(#paint7_linear_1618_953)"/>
<path d="M89.4756 134.723V91.3305C89.4756 89.0513 87.6292 87.2036 85.3516 87.2036H68.9151C66.6375 87.2036 64.7911 89.0513 64.7911 91.3305V134.723C64.7911 137.002 66.6375 138.85 68.9151 138.85H85.3516C87.6292 138.85 89.4756 137.002 89.4756 134.723Z" fill="black"/>
<path d="M64.1348 105.642H64.3415V110.329H64.1348C64.0843 110.329 64.043 110.288 64.043 110.237V105.738C64.043 105.688 64.0843 105.646 64.1348 105.646V105.642Z" fill="black"/>
<path d="M64.3415 110.127H64.043V110.233H64.3415V110.127Z" fill="white"/>
<path d="M64.3415 105.738H64.043V106.037H64.3415V105.738Z" fill="white"/>
<path d="M90.1513 107.314H89.9446V100.021H90.1513C90.2018 100.021 90.2432 100.062 90.2432 100.113V107.223C90.2432 107.273 90.2018 107.314 90.1513 107.314Z" fill="black"/>
<path d="M90.2468 100.118H89.9482V100.223H90.2468V100.118Z" fill="white"/>
<path d="M90.2468 106.923H89.9482V107.222H90.2468V106.923Z" fill="white"/>
<path d="M64.1348 99.7637H64.3415V104.451H64.1348C64.0843 104.451 64.043 104.41 64.043 104.359V99.8602C64.043 99.8096 64.0843 99.7683 64.1348 99.7683V99.7637Z" fill="black"/>
<path d="M64.3415 104.245H64.043V104.35H64.3415V104.245Z" fill="white"/>
<path d="M64.3415 99.8555H64.043V100.154H64.3415V99.8555Z" fill="white"/>
<path d="M64.1348 95.4111H64.3415V97.7641H64.1348C64.0843 97.7641 64.043 97.7228 64.043 97.6722V95.503C64.043 95.4525 64.0843 95.4111 64.1348 95.4111Z" fill="black"/>
<path d="M64.3415 97.562H64.043V97.6677H64.3415V97.562Z" fill="white"/>
<path d="M64.3415 95.5029H64.043V95.8017H64.3415V95.5029Z" fill="white"/>
<path d="M88.654 90.9767V135.04C88.654 136.649 87.3497 137.954 85.7424 137.954H68.5298C66.9224 137.954 65.6182 136.649 65.6182 135.04V90.9767C65.6182 89.3682 66.9224 88.063 68.5298 88.063H71.9741C72.1762 88.063 72.3415 88.2284 72.3415 88.4306V88.6926C72.3415 89.5014 72.9937 90.154 73.8019 90.154H80.461C81.2693 90.154 81.9214 89.4969 81.9214 88.6926V88.4352C81.9214 88.233 82.0868 88.0676 82.2888 88.0676H85.7332C87.3405 88.0676 88.6448 89.3728 88.6448 90.9813L88.654 90.9767Z" fill="#FFEAE9"/>
<path d="M68.507 137.963H85.7196C87.327 137.963 88.6312 136.658 88.6312 135.049V123.657H65.5908V135.049C65.5908 136.658 66.8951 137.963 68.5024 137.963H68.507Z" fill="#EFDCDC"/>
<path d="M53.787 58.8525H4.17455C1.86901 58.8525 0 60.7229 0 63.03V135.132C0 137.439 1.86901 139.309 4.17455 139.309H53.787C56.0925 139.309 57.9616 137.439 57.9616 135.132V63.03C57.9616 60.7229 56.0925 58.8525 53.787 58.8525Z" fill="url(#paint8_linear_1618_953)"/>
<path d="M57.5029 135.132L57.5029 63.0255C57.5029 60.9722 55.8395 59.3076 53.7876 59.3076H4.17059C2.11868 59.3076 0.455284 60.9722 0.455284 63.0255L0.455284 135.132C0.455284 137.185 2.11868 138.85 4.17059 138.85H53.7876C55.8395 138.85 57.5029 137.185 57.5029 135.132Z" fill="black"/>
<path style="mix-blend-mode:screen" d="M57.2725 135.136L57.2725 63.0252C57.2725 61.0988 55.7119 59.5371 53.7868 59.5371H4.16515C2.24006 59.5371 0.67947 61.0988 0.67947 63.0252L0.67947 135.136C0.67947 137.063 2.24006 138.624 4.16515 138.624H53.7868C55.7119 138.624 57.2725 137.063 57.2725 135.136Z" fill="url(#paint9_linear_1618_953)"/>
<path style="mix-blend-mode:screen" d="M57.2776 80.6041V63.0301C57.2776 61.1045 55.7115 59.542 53.7919 59.542H4.17025C2.24601 59.542 0.68457 61.1091 0.68457 63.0301V80.6041H57.2776Z" fill="url(#paint10_linear_1618_953)"/>
<path d="M57.0479 135.137L57.0479 63.0254C57.0479 61.2259 55.5901 59.7671 53.7918 59.7671H4.17016C2.37189 59.7671 0.914104 61.2259 0.914104 63.0254L0.914104 135.137C0.914104 136.936 2.37189 138.395 4.17016 138.395H53.7918C55.5901 138.395 57.0479 136.936 57.0479 135.137Z" fill="black"/>
<path d="M58.2727 78.2046H57.9604V71.0859H58.2727C58.3507 71.0859 58.415 71.1502 58.415 71.2283V78.0621C58.415 78.1403 58.3507 78.2046 58.2727 78.2046Z" fill="black"/>
<path d="M58.4146 71.2329H57.96V71.3938H58.4146V71.2329Z" fill="white"/>
<path d="M58.4146 77.6074H57.96V78.0578H58.4146V77.6074Z" fill="white"/>
<path d="M58.2727 87.2817H57.9604V80.163H58.2727C58.3507 80.163 58.415 80.2273 58.415 80.3055V87.1393C58.415 87.2174 58.3507 87.2817 58.2727 87.2817Z" fill="black"/>
<path d="M58.4146 80.3145H57.96V80.4753H58.4146V80.3145Z" fill="white"/>
<path d="M58.4146 86.689H57.96V87.1393H58.4146V86.689Z" fill="white"/>
<path d="M53.0518 58.6181V58.8617H50.2687V58.6181C50.2687 58.5584 50.3192 58.5078 50.3789 58.5078H52.9415C53.0012 58.5078 53.0518 58.5584 53.0518 58.6181Z" fill="black"/>
<path d="M50.5078 58.5078H50.3838V58.8617H50.5078V58.5078Z" fill="white"/>
<path d="M52.9415 58.5078H52.5879V58.8617H52.9415V58.5078Z" fill="white"/>
<path d="M54.0119 61.2559H3.67385C2.99417 61.2559 2.43848 61.8073 2.43848 62.4921V135.674C2.43848 136.354 2.98957 136.91 3.67385 136.91H54.0119C54.6916 136.91 55.2473 136.359 55.2473 135.674V62.4921C55.2473 61.8119 54.6962 61.2559 54.0119 61.2559Z" fill="#FFEAE9"/>
<path d="M2.43848 113.422V135.674C2.43848 136.354 2.98957 136.91 3.67385 136.91H54.0119C54.6916 136.91 55.2473 136.359 55.2473 135.674V113.422H2.43848Z" fill="#EFDCDC"/>
<path d="M262.965 55.0747H153.747C151.437 55.0747 149.563 56.9491 149.563 59.2614V132.14C149.563 134.452 151.437 136.327 153.747 136.327H262.965C265.276 136.327 267.149 134.452 267.149 132.14V59.2614C267.149 56.9491 265.276 55.0747 262.965 55.0747Z" fill="url(#paint11_linear_1618_953)"/>
<path d="M266.69 132.14V59.2569C266.69 57.1985 265.023 55.5298 262.966 55.5298L153.743 55.5298C151.686 55.5298 150.019 57.1985 150.019 59.2569V132.14C150.019 134.198 151.686 135.867 153.743 135.867H262.966C265.023 135.867 266.69 134.198 266.69 132.14Z" fill="black"/>
<path d="M222.676 133.794H280.123C280.509 133.794 280.821 134.107 280.821 134.493V137.177H135.947V134.493C135.947 134.107 136.26 133.794 136.645 133.794H222.676Z" fill="url(#paint12_linear_1618_953)"/>
<path d="M267.278 139.314H149.49C149.114 139.314 148.742 139.281 148.37 139.222L135.947 137.181H280.826L268.403 139.222C268.031 139.281 267.659 139.314 267.283 139.314H267.278Z" fill="url(#paint13_linear_1618_953)"/>
<path d="M263.962 60.1118H152.746V111.133H263.962V60.1118Z" fill="#FFEAE9"/>
<path d="M263.962 111.129H152.746V129.668H263.962V111.129Z" fill="#EFDCDC"/>
</g>
<defs>
<linearGradient id="paint0_linear_1618_953" x1="112.511" y1="79.009" x2="139.971" y2="154.021" gradientUnits="userSpaceOnUse">
<stop stop-color="#B0AFAB"/>
<stop offset="1" stop-color="#787773"/>
</linearGradient>
<linearGradient id="paint1_linear_1618_953" x1="111.014" y1="114.139" x2="144.116" y2="147.218" gradientUnits="userSpaceOnUse">
<stop stop-color="#B0AFAB"/>
<stop offset="1" stop-color="#787773"/>
</linearGradient>
<linearGradient id="paint2_linear_1618_953" x1="121.397" y1="125.697" x2="121.397" y2="111.561" gradientUnits="userSpaceOnUse">
<stop stop-color="white"/>
<stop offset="0.15" stop-color="#FAFAFA"/>
<stop offset="0.32" stop-color="#ECECEC"/>
<stop offset="0.51" stop-color="#D6D6D5"/>
<stop offset="0.7" stop-color="#B7B7B4"/>
<stop offset="0.9" stop-color="#8F8F8B"/>
<stop offset="1" stop-color="#787773"/>
</linearGradient>
<linearGradient id="paint3_linear_1618_953" x1="121.397" y1="129.107" x2="121.397" y2="142.237" gradientUnits="userSpaceOnUse">
<stop stop-color="#B0AFAB"/>
<stop offset="1" stop-color="#787773"/>
</linearGradient>
<linearGradient id="paint4_linear_1618_953" x1="121.397" y1="139.939" x2="121.397" y2="138.271" gradientUnits="userSpaceOnUse">
<stop stop-color="#B0AFAB"/>
<stop offset="1" stop-color="#787773"/>
</linearGradient>
<linearGradient id="paint5_linear_1618_953" x1="77.1305" y1="129.332" x2="77.1305" y2="94.6439" gradientUnits="userSpaceOnUse">
<stop stop-color="#B0AFAB"/>
<stop offset="1" stop-color="#787773"/>
</linearGradient>
<linearGradient id="paint6_linear_1618_953" x1="77.1308" y1="85.1725" x2="77.1308" y2="102.452" gradientUnits="userSpaceOnUse">
<stop stop-color="white"/>
<stop offset="0.13" stop-color="#E3E3E3"/>
<stop offset="0.42" stop-color="#9D9D9D"/>
<stop offset="0.83" stop-color="#2E2E2E"/>
<stop offset="1"/>
</linearGradient>
<linearGradient id="paint7_linear_1618_953" x1="-19.7654" y1="137.306" x2="-19.3055" y2="124.107" gradientUnits="userSpaceOnUse">
<stop stop-color="white"/>
<stop offset="0.13" stop-color="#E3E3E3"/>
<stop offset="0.42" stop-color="#9D9D9D"/>
<stop offset="0.83" stop-color="#2E2E2E"/>
<stop offset="1"/>
</linearGradient>
<linearGradient id="paint8_linear_1618_953" x1="0" y1="99.0833" x2="57.9616" y2="99.0833" gradientUnits="userSpaceOnUse">
<stop stop-color="#B0AFAB"/>
<stop offset="1" stop-color="#787773"/>
</linearGradient>
<linearGradient id="paint9_linear_1618_953" x1="28.9783" y1="138.013" x2="28.9783" y2="107.149" gradientUnits="userSpaceOnUse">
<stop stop-color="white"/>
<stop offset="1"/>
</linearGradient>
<linearGradient id="paint10_linear_1618_953" x1="-5.65304" y1="59.2387" x2="-5.19314" y2="91.4453" gradientUnits="userSpaceOnUse">
<stop stop-color="white"/>
<stop offset="1"/>
</linearGradient>
<linearGradient id="paint11_linear_1618_953" x1="164.535" y1="51.8531" x2="251.959" y2="139.216" gradientUnits="userSpaceOnUse">
<stop stop-color="#B0AFAB"/>
<stop offset="1" stop-color="#787773"/>
</linearGradient>
<linearGradient id="paint12_linear_1618_953" x1="172.958" y1="100.241" x2="287.712" y2="214.915" gradientUnits="userSpaceOnUse">
<stop stop-color="#B0AFAB"/>
<stop offset="1" stop-color="#787773"/>
</linearGradient>
<linearGradient id="paint13_linear_1618_953" x1="208.384" y1="139.663" x2="208.384" y2="137.687" gradientUnits="userSpaceOnUse">
<stop stop-color="#B0AFAB"/>
<stop offset="1" stop-color="#787773"/>
</linearGradient>
<clipPath id="clip0_1618_953">
<rect width="280.826" height="139.314" fill="white"/>
</clipPath>
</defs>
</svg>
