<svg width="102" height="53" viewBox="0 0 102 53" fill="none" xmlns="http://www.w3.org/2000/svg">
<g clip-path="url(#clip0_1611_400)">
<path d="M41.2227 44.6025C42.9693 42.6532 43.8923 39.8042 43.8923 35.967V14.5314H40.2039V17.8858H40.1584C39.4596 16.5867 38.4887 15.6126 37.2438 14.9625C35.999 14.313 34.6323 13.9879 33.1448 13.9879C31.1107 13.9879 29.3949 14.3732 27.9986 15.1438C26.6023 15.9144 25.4781 16.9046 24.6285 18.113C23.778 19.3214 23.1706 20.6511 22.8062 22.1021C22.4418 23.5531 22.2597 24.9735 22.2597 26.3633C22.2597 27.9651 22.4796 29.4844 22.9201 30.9189C23.3598 32.3546 24.0201 33.616 24.901 34.7043C25.7813 35.7921 26.8748 36.6535 28.18 37.2883C29.4852 37.9232 31.0188 38.2402 32.7807 38.2402C33.5094 38.2402 34.2457 38.1497 34.9888 37.9683C35.7332 37.787 36.4313 37.5228 37.0844 37.175C37.7369 36.8281 38.321 36.3896 38.8381 35.8606C39.3541 35.3322 39.7789 34.7049 40.1137 33.9797H40.2033V35.5203C40.2033 36.85 40.0739 38.0584 39.8161 39.1466C39.5579 40.2346 39.1402 41.1642 38.5642 41.9344C37.9871 42.7051 37.2578 43.3089 36.3786 43.7482C35.4976 44.186 34.4202 44.4055 33.1458 44.4055C32.5081 44.4055 31.8394 44.3373 31.1412 44.2015C30.8892 44.1526 30.6442 44.0923 30.4063 44.0214C30.1474 43.9304 29.8906 43.838 29.6359 43.7439C29.6123 43.7339 29.5887 43.7236 29.5652 43.7134V43.7176C19.5626 39.9994 12.975 33.677 12.975 26.4985C12.975 15.0564 29.719 5.78138 50.3797 5.78138C61.8875 5.78138 72.212 8.39016 79.0634 12.9175C71.5742 5.33147 58.1423 -0.00268447 42.7947 -0.00268447C19.2821 -0.00680669 0.218865 11.8575 0.207031 26.4855C0.205611 36.4754 9.08665 45.1769 22.2049 49.6995C32.727 50.058 38.0614 48.1142 41.209 44.6033L41.2227 44.6025ZM39.6347 29.0322C39.3765 30.12 38.9744 31.0945 38.4277 31.9555C37.8814 32.8169 37.1592 33.5125 36.2646 34.0402C35.3688 34.5693 34.2838 34.8334 33.0082 34.8334C31.7325 34.8334 30.6699 34.5693 29.8203 34.0402C28.97 33.512 28.2867 32.8164 27.7708 31.9555C27.2541 31.0944 26.8899 30.1358 26.6777 29.077C26.4651 28.0196 26.359 26.9617 26.359 25.9041C26.359 24.7865 26.4877 23.7134 26.746 22.6852C27.0038 21.6583 27.4135 20.7513 27.9755 19.9657C28.537 19.1803 29.2582 18.5536 30.1386 18.0848C31.0189 17.6166 32.0816 17.3823 33.3265 17.3823C34.5405 17.3823 35.5724 17.6245 36.4232 18.1075C37.2728 18.5912 37.9639 19.2336 38.4952 20.0344C39.026 20.8354 39.4132 21.7339 39.6565 22.7315C39.8992 23.7287 40.0209 24.742 40.0209 25.769C40.0209 26.857 39.8913 27.9455 39.6337 29.0326L39.6347 29.0322Z" fill="#86C540"/>
<path d="M43.0091 46.8167C40.7785 48.8319 36.7931 51.1332 31.3652 52.0366C34.9992 52.6654 38.8272 53.0017 42.7831 53.0021C58.0716 53.0051 71.4667 47.6915 78.9808 40.1526C72.1199 44.6529 61.8463 47.2134 50.38 47.2134C47.656 47.2136 45.5722 47.1181 43.0138 46.8117L43.0091 46.8167Z" fill="#86C540"/>
<path d="M66.5573 38.0306H61.0004V19.3981H54.0283V14.6599H73.5294V19.3981H66.5573V38.0306Z" fill="#86C540"/>
<path d="M81.9877 38.0304H76.4297V14.6633H93.5878V19.4015H81.9889V23.7746H92.1418V28.5128H81.9889L81.9877 38.0304Z" fill="#86C540"/>
<path d="M47.1279 8.83325H50.9986V37.9597H47.1279V8.83325Z" fill="#86C540"/>
<path d="M98.1188 14.6987V15.3465H97.2411V17.5961H96.482V15.3465H95.6162V14.6987H98.1188Z" fill="#86C540"/>
<path d="M101.001 17.5961V15.3936H100.989L100.373 17.5961H99.7914L99.1865 15.3936H99.1747V17.5961H98.4512V14.6987H99.5779L100.076 16.6303H100.088L100.598 14.6987H101.713V17.5961H101.001Z" fill="#86C540"/>
</g>
<defs>
<clipPath id="clip0_1611_400">
<rect width="102" height="53" fill="white"/>
</clipPath>
</defs>
</svg>
