<svg width="198" height="141" viewBox="0 0 198 141" fill="none" xmlns="http://www.w3.org/2000/svg">
<path d="M44.8384 93.1871L43.4253 92.292C42.9727 92.0047 42.9064 91.3638 43.2818 90.988L54.8515 79.5505C55.0944 79.3074 55.4587 79.2411 55.7788 79.3737L56.4854 79.672C57.0153 79.9041 57.1588 80.5782 56.7724 81.0092L45.9203 93.0435C45.6443 93.3529 45.1917 93.4081 44.8494 93.1871H44.8384Z" fill="#90D5DE"/>
<path d="M47.1351 78.1139C45.0596 77.7603 42.6529 78.9427 42.123 80.9871C41.5931 83.0204 42.7964 84.877 44.8277 85.4074C46.8591 85.9378 49.4203 85.0648 49.9502 83.0315C50.4801 80.9981 49.6632 78.5559 47.1351 78.1139ZM45.4349 83.363C44.5959 83.142 44.4855 82.0369 44.6953 81.1971C44.9161 80.3572 45.722 80.0699 46.561 80.2909C47.4 80.5119 47.8968 81.3628 47.676 82.2027C47.4552 83.0425 46.2629 83.584 45.4239 83.363H45.4349Z" fill="#90D5DE"/>
<path d="M54.9954 87.5622C52.9199 87.2086 50.5133 88.3911 49.9834 90.4354C49.4534 92.4688 50.6568 94.3253 52.6881 94.8558C54.7194 95.3862 57.2806 94.5132 57.8106 92.4798C58.3405 90.4465 57.5235 88.0043 54.9954 87.5622ZM53.2953 92.8114C52.4563 92.5903 52.3459 91.4853 52.5556 90.6454C52.7764 89.8056 53.5823 89.5182 54.4213 89.7392C55.2604 89.9603 55.7572 90.8112 55.5364 91.651C55.3156 92.4909 54.1233 93.0324 53.2842 92.8114H53.2953Z" fill="#90D5DE"/>
<path d="M179.292 40.1766L178.188 39.4804C177.835 39.2483 177.78 38.751 178.078 38.4527L187.119 29.5015C187.307 29.3137 187.594 29.2584 187.837 29.3689L188.389 29.601C188.808 29.7778 188.919 30.3082 188.621 30.6508L180.131 40.0661C179.921 40.3092 179.557 40.3534 179.292 40.1766Z" fill="#90D5DE"/>
<path d="M181.092 28.3965C179.469 28.1202 177.581 29.0485 177.172 30.6398C176.753 32.2311 177.702 33.6788 179.292 34.0987C180.882 34.5186 182.88 33.8335 183.3 32.2422C183.719 30.6509 183.079 28.7391 181.103 28.3965H181.092ZM179.767 32.4964C179.115 32.3306 179.016 31.4576 179.193 30.8056C179.358 30.1536 179.999 29.9215 180.65 30.0983C181.301 30.2641 181.699 30.9382 181.522 31.5902C181.345 32.2422 180.418 32.6732 179.767 32.4964Z" fill="#90D5DE"/>
<path d="M187.241 35.7785C185.618 35.5022 183.73 36.4305 183.322 38.0218C182.902 39.6131 183.852 41.0607 185.442 41.4807C187.031 41.9006 189.029 41.2155 189.449 39.6241C189.868 38.0328 189.228 36.121 187.252 35.7785H187.241ZM185.916 39.8783C185.265 39.7126 185.165 38.8395 185.342 38.1875C185.508 37.5355 186.148 37.3035 186.799 37.4803C187.451 37.6461 187.848 38.3202 187.672 38.9722C187.506 39.6241 186.568 40.0551 185.916 39.8783Z" fill="#90D5DE"/>
<path d="M169.39 140.12H197.254V49.1498H169.39V140.12Z" fill="#8AD3DD"/>
<path d="M127.549 140.109H155.005L155.005 9.76494H127.549L127.549 140.109Z" fill="#8AD3DD"/>
<path d="M77.7821 140.12H103.328L103.328 76.18H77.7821V140.12Z" fill="#8AD3DD"/>
<path d="M40.3565 140.12H65.7148V101.652H40.3565V140.12Z" fill="#8AD3DD"/>
<path d="M0.746134 140.12H26.1045L26.1045 118.35H0.746134L0.746134 140.12Z" fill="#8AD3DD"/>
<path d="M144.175 7.32273L101.506 46.6082C100.524 47.5033 98.9892 47.3928 98.1612 46.3541L77.1966 20.0753C76.3907 19.0697 74.9114 18.926 73.9289 19.7548L15.5285 69.2513C14.1816 70.3895 14.579 72.5665 16.246 73.1632L22.7926 75.4839C23.5654 75.7602 24.4155 75.6054 25.0337 75.075L72.4606 34.8834C73.4431 34.0435 74.9224 34.1982 75.7283 35.2038L96.9799 61.8472C97.8079 62.886 99.3424 63.0076 100.325 62.1014L151.351 15.1246C152.278 14.2626 152.344 12.815 151.483 11.8867L147.421 7.46639C146.56 6.53813 145.113 6.47183 144.186 7.33379L144.175 7.32273Z" fill="#F04842"/>
<path d="M148.171 33.3583C150.556 31.4134 164.344 4.30587 164.344 4.30587C165.846 1.92995 164.035 0.692267 162.821 0.902232C152.09 2.79191 127.549 9.78705 127.416 11.2237C127.129 14.2958 146.25 34.9055 148.171 33.3473V33.3583Z" fill="#F04842"/>
</svg>
