<svg width="345" height="112" viewBox="0 0 345 112" fill="none" xmlns="http://www.w3.org/2000/svg">
<g clip-path="url(#clip0_494_398)">
<path d="M100 55.9741C100.065 80.7791 79.88 100.981 55.0022 101.002C30.146 101.02 9.98699 80.8659 10 56.0089C10.013 31.1908 30.081 11.0848 54.9111 10.998C79.6718 10.9155 99.9306 31.1214 99.9957 55.9741H100ZM55.0629 13.2411C31.6597 13.0632 12.4158 32.1497 12.1816 55.5229C11.9387 79.4081 31.1436 98.6898 54.6942 98.8329C78.9172 98.9848 97.6406 79.2215 97.7881 56.3126C97.9399 32.6704 78.6049 13.1023 55.0629 13.2411Z" fill="black"/>
<path d="M55.0633 13.2411C78.6053 13.1023 97.9403 32.6704 97.7885 56.3126C97.641 79.2215 78.9176 98.9805 54.6946 98.8329C31.144 98.6854 11.9391 79.4081 12.182 55.5229C12.4162 32.1497 31.6601 13.0633 55.0633 13.2411ZM55.0069 14.4126C32.0938 14.3953 13.4788 32.9741 13.4311 55.9177C13.379 78.9959 31.8943 97.54 55.0243 97.579C77.8853 97.6137 96.4787 79.0827 96.5697 56.1694C96.6608 33.1693 78.0111 14.43 55.0069 14.4126Z" fill="white"/>
<path d="M55.0066 14.4125C78.0065 14.4299 96.6605 33.1693 96.5694 56.1693C96.4784 79.0826 77.885 97.6136 55.024 97.5789C31.894 97.5399 13.383 78.9958 13.4308 55.9176C13.4785 32.974 32.0935 14.3952 55.0066 14.4125ZM79.8975 52.9108C81.5282 52.6852 81.8015 52.2947 81.1075 51.2144C80.6608 50.5202 79.9192 49.7739 79.1688 49.57C76.6316 48.8714 74.5671 47.4873 72.5504 45.8646C69.857 43.6909 67.1116 43.6128 64.1536 45.3657C63.7243 45.6173 63.3166 45.9037 62.8742 46.1249C61.6078 46.7671 60.3326 47.214 58.9274 46.4417C58.7105 46.3202 58.0686 46.4677 58.0253 46.6109C57.7217 47.6782 56.967 47.3919 56.2037 47.3485V31.9284C56.7588 31.8676 57.2619 31.8155 57.8995 31.7461C56.9757 29.286 56.0909 26.9257 55.2061 24.5654C55.1107 24.5654 55.0196 24.5697 54.9242 24.5741C54.0394 26.9344 53.159 29.299 52.2439 31.7418C52.8207 31.8155 53.2588 31.8719 53.7749 31.937V47.5437C53.2327 47.3311 52.5605 47.2704 52.4564 46.9927C52.0791 46.0035 51.5065 46.3202 50.8256 46.5154C50.2705 46.676 49.6199 46.8582 49.1038 46.7064C48.0629 46.407 47.0046 46.0165 46.1025 45.4307C43.4872 43.7386 40.269 43.6345 37.8749 45.652C35.7107 47.4743 33.3816 48.8237 30.7056 49.6871C30.0637 49.8954 29.4175 50.4768 29.0402 51.0625C28.3029 52.2123 28.5848 52.7113 30.1244 52.9933C29.6127 53.6137 29.27 54.2689 28.7322 54.6464C26.7024 56.0782 24.4081 57.0978 21.9663 57.3104C20.3399 57.4536 18.644 56.8418 16.9829 56.5468C16.8267 56.5207 16.7096 56.3081 16.5492 56.2517C16.2369 56.1389 15.9116 56.0738 15.5906 55.9914C15.5256 56.3515 15.3564 56.7247 15.4128 57.0631C15.6297 58.3257 16.7573 59.1631 18.3751 59.3887C19.6936 59.5709 20.9557 59.662 22.1181 60.6209C29.565 66.7734 37.0725 72.8477 44.5758 78.9307C47.087 80.9656 49.6589 82.9224 52.1528 84.9747C52.5952 85.3391 52.8164 85.9856 53.0983 86.5236C53.2848 86.8794 53.4019 87.2743 53.5537 87.6517C53.918 87.4955 54.2867 87.348 54.6423 87.1745C54.7941 87.1007 54.9155 86.9749 55.0804 86.8491C55.2799 87.0096 55.4317 87.1571 55.6051 87.2656C55.9738 87.4955 56.3598 87.7038 56.7371 87.9164C56.8976 87.4825 57.0364 87.04 57.2186 86.6191C57.4137 86.1722 57.5482 85.6168 57.8908 85.3218C59.1529 84.2327 60.5018 83.2478 61.7986 82.1935C70.243 75.3555 78.6961 68.5262 87.1058 61.6449C88.5674 60.4517 90.0073 59.4104 91.9721 59.3019C92.4752 59.2759 93.0824 59.072 93.4337 58.7335C93.9671 58.2216 94.3705 57.549 94.7305 56.8895C94.8389 56.69 94.7131 56.1867 94.531 56.0565C94.3488 55.9263 93.9541 56.0695 93.6592 56.1346C93.1344 56.2517 92.6183 56.3993 92.0978 56.5294C91.5904 56.6552 91.0873 56.7811 90.5755 56.8852C89.7341 57.0588 88.7843 57.5404 88.06 57.3191C85.874 56.6509 83.7358 55.7788 81.6583 54.8199C81.0034 54.5206 80.5914 53.6918 79.8888 52.9065L79.8975 52.9108Z" fill="#FB1807"/>
<path d="M79.8974 52.9109C80.6044 53.7005 81.0164 54.5249 81.667 54.8243C83.7488 55.7831 85.8827 56.6552 88.0686 57.3234C88.7973 57.5447 89.7428 57.0631 90.5842 56.8895C91.0959 56.7854 91.5991 56.6596 92.1065 56.5338C92.627 56.4036 93.1431 56.2561 93.6679 56.1389C93.9585 56.0738 94.3575 55.9307 94.5396 56.0608C94.7218 56.191 94.8476 56.6943 94.7391 56.8939C94.3792 57.5534 93.9758 58.2259 93.4423 58.7379C93.0867 59.0763 92.4838 59.2802 91.9807 59.3063C90.016 59.4147 88.5717 60.456 87.1144 61.6492C78.7047 68.5306 70.2516 75.3555 61.8072 82.1978C60.5104 83.2478 59.1616 84.2371 57.8995 85.3261C57.5568 85.6212 57.4224 86.1722 57.2272 86.6234C57.0451 87.0443 56.9019 87.4868 56.7458 87.9207C56.3685 87.7038 55.9868 87.4955 55.6138 87.2699C55.4403 87.1614 55.2885 87.0139 55.089 86.8534C54.9242 86.9749 54.7984 87.105 54.651 87.1788C54.2953 87.3524 53.9267 87.4999 53.5623 87.6561C53.4149 87.2786 53.2978 86.8881 53.1069 86.528C52.825 85.99 52.6038 85.3435 52.1614 84.979C49.6676 82.9268 47.0957 80.97 44.5844 78.9351C37.0812 72.852 29.5736 66.7777 22.1267 60.6253C20.9687 59.6664 19.7022 59.5753 18.3837 59.393C16.766 59.1674 15.634 58.33 15.4215 57.0674C15.3651 56.729 15.5342 56.3559 15.5993 55.9957C15.9202 56.0782 16.2499 56.1433 16.5578 56.2561C16.7183 56.3125 16.8354 56.5251 16.9915 56.5511C18.6526 56.8462 20.3485 57.4579 21.9749 57.3147C24.4167 57.1021 26.7111 56.0825 28.7409 54.6507C29.2787 54.2732 29.6213 53.6181 30.1331 52.9976C28.5934 52.7156 28.3115 52.2123 29.0488 51.0669C29.4261 50.4811 30.068 49.8997 30.7143 49.6915C33.3946 48.828 35.7237 47.4787 37.8836 45.6564C40.2777 43.6388 43.4958 43.7473 46.1111 45.4351C47.0132 46.0208 48.0715 46.407 49.1124 46.7107C49.6285 46.8582 50.2791 46.676 50.8343 46.5198C51.5109 46.3245 52.0834 46.0078 52.465 46.997C52.5691 47.2747 53.2414 47.3355 53.7835 47.5481V31.937C53.2674 31.8719 52.8294 31.8155 52.2525 31.7418C53.1676 29.299 54.0481 26.9387 54.9329 24.5741C55.0283 24.5741 55.1194 24.5697 55.2148 24.5654C56.0996 26.9257 56.9843 29.286 57.9081 31.7461C57.2706 31.8155 56.7675 31.8676 56.2123 31.9283V47.3442C56.9757 47.3875 57.726 47.6739 58.0339 46.6066C58.073 46.4677 58.7149 46.3202 58.936 46.4373C60.3413 47.2097 61.6164 46.7628 62.8828 46.1206C63.3252 45.895 63.7373 45.613 64.1623 45.3613C67.1202 43.6084 69.8656 43.6865 72.559 45.8603C74.5714 47.483 76.6403 48.8671 79.1775 49.5656C79.9278 49.7695 80.6695 50.5202 81.1162 51.21C81.8101 52.2861 81.5369 52.6809 79.9061 52.9065L79.8974 52.9109ZM86.5766 59.6707C86.1516 59.5449 85.8957 59.4277 85.6355 59.3974C81.68 58.9114 78.2146 57.3147 75.2047 54.7332C74.9271 54.4945 74.6365 54.0433 74.6625 53.7135C74.7796 52.0214 74.4196 51.1233 72.8886 50.4941C70.616 49.5613 68.2913 48.7413 65.8451 50.0386C65.5805 50.1817 65.2119 50.1167 64.9213 50.2295C64.4225 50.4204 63.9151 50.62 63.4727 50.9107C62.9175 51.2708 62.4795 51.8522 61.8896 52.1082C60.6926 52.6288 60.3326 52.3728 60.1895 51.0625C60.1114 50.3683 59.7775 49.9952 59.0965 50.0429C58.151 50.1036 57.2099 50.2295 56.1603 50.3379C56.1603 50.7762 56.1603 51.1927 56.1603 51.6092C56.1646 60.0656 56.169 68.5262 56.1776 76.9826C56.1776 79.1129 55.8653 81.304 57.5048 83.148C67.0855 75.4119 76.7704 67.5891 86.5766 59.6707ZM23.7228 59.5709C33.5031 67.4806 43.1922 75.3165 53.0028 83.2565C53.3281 81.9592 53.8139 80.9136 53.8226 79.8636C53.9093 70.3052 53.918 60.7467 53.9397 51.184C53.9397 50.8759 53.8573 50.5722 53.8095 50.2512C52.9508 50.1948 52.1744 50.147 51.3981 50.0906C50.4786 50.0212 49.8628 50.2512 49.9365 51.3576C49.9929 52.1819 49.4377 52.5247 48.7741 52.26C48.0455 51.9737 47.4383 51.4009 46.7487 50.9931C46.2326 50.6894 45.6861 50.4334 45.1353 50.1991C44.849 50.0776 44.4847 50.121 44.2071 49.9865C41.7003 48.7629 39.3495 49.5786 37.0595 50.5896C35.689 51.1927 35.303 52.1646 35.4331 53.6745C35.4591 53.9695 35.2986 54.3817 35.0818 54.5813C33.3946 56.1259 31.5557 57.4753 29.3351 58.1348C27.5438 58.6641 25.7136 59.0633 23.7141 59.5666L23.7228 59.5709Z" fill="white"/>
<path d="M86.5722 59.6707C76.7659 67.589 67.0811 75.4119 57.5003 83.148C55.8609 81.3084 56.1732 79.1129 56.1732 76.9826C56.1645 68.5262 56.1602 60.0655 56.1558 51.6092C56.1558 51.1927 56.1558 50.7718 56.1558 50.3379C57.2054 50.2294 58.1466 50.1036 59.0921 50.0429C59.773 49.9995 60.107 50.3726 60.185 51.0625C60.3282 52.3728 60.6881 52.6288 61.8852 52.1081C62.475 51.8522 62.9131 51.2707 63.4682 50.9106C63.9106 50.6199 64.4181 50.4203 64.9169 50.2294C65.2074 50.121 65.5761 50.1817 65.8407 50.0385C68.2868 48.7412 70.6159 49.5569 72.8842 50.4941C74.4152 51.1232 74.7752 52.0214 74.6581 53.7135C74.6364 54.0433 74.9226 54.4945 75.2002 54.7331C78.2102 57.3147 81.6756 58.9114 85.631 59.3973C85.8956 59.4277 86.1472 59.5449 86.5722 59.6707Z" fill="#EC2F31"/>
<path d="M23.7188 59.5753C25.7182 59.072 27.5485 58.6728 29.3397 58.1435C31.5647 57.484 33.3993 56.139 35.0864 54.59C35.3033 54.3904 35.4637 53.9782 35.4376 53.6832C35.3119 52.1733 35.698 51.2014 37.0642 50.5983C39.3542 49.5873 41.7048 48.7716 44.2118 49.9952C44.4893 50.1297 44.8493 50.0863 45.1399 50.2078C45.6907 50.4378 46.2372 50.6981 46.7533 51.0018C47.4386 51.4053 48.0501 51.978 48.7788 52.2687C49.438 52.5291 49.9975 52.1906 49.9411 51.3663C49.8631 50.2599 50.4789 50.0256 51.4027 50.0993C52.1791 50.1601 52.9554 50.2035 53.8142 50.2599C53.8619 50.5766 53.9443 50.8846 53.9443 51.1927C53.9226 60.7511 53.914 70.3095 53.8272 79.8723C53.8185 80.9223 53.3328 81.9679 53.0075 83.2652C43.1925 75.3295 33.5077 67.4936 23.7275 59.5796L23.7188 59.5753Z" fill="#EC2F31"/>
<path d="M142.123 53.1332L146.473 38.3282H151.483L144.823 58.4582H139.753L133.213 38.3282H138.283L142.543 53.1332H142.123ZM157.409 41.7782C156.499 41.7782 155.794 41.5482 155.294 41.0882C154.804 40.6182 154.559 39.9582 154.559 39.1082C154.559 38.2782 154.804 37.6182 155.294 37.1282C155.794 36.6282 156.499 36.3782 157.409 36.3782C158.289 36.3782 158.984 36.6282 159.494 37.1282C160.004 37.6182 160.259 38.2782 160.259 39.1082C160.259 39.9582 160.004 40.6182 159.494 41.0882C158.984 41.5482 158.289 41.7782 157.409 41.7782ZM155.009 58.4582V43.5932H159.809V58.4582H155.009ZM171.04 58.9382C169.63 58.9382 168.385 58.7532 167.305 58.3832C166.225 58.0032 165.38 57.4382 164.77 56.6882C164.17 55.9282 163.875 54.9732 163.885 53.8232H168.22C168.24 54.3432 168.44 54.7032 168.82 54.9032C169.21 55.1032 169.735 55.2032 170.395 55.2032C170.795 55.2032 171.125 55.1532 171.385 55.0532C171.645 54.9532 171.84 54.8232 171.97 54.6632C172.1 54.4932 172.165 54.3132 172.165 54.1232C172.165 53.8732 172.075 53.6732 171.895 53.5232C171.715 53.3732 171.435 53.2232 171.055 53.0732L167.47 51.6782C166.41 51.2382 165.59 50.6832 165.01 50.0132C164.44 49.3332 164.155 48.5282 164.155 47.5982C164.155 46.2882 164.76 45.2282 165.97 44.4182C167.18 43.6082 168.835 43.2032 170.935 43.2032C172.905 43.2032 174.42 43.6632 175.48 44.5832C176.54 45.5032 177.075 46.6732 177.085 48.0932H172.69C172.69 47.7732 172.555 47.4982 172.285 47.2682C172.015 47.0282 171.565 46.9082 170.935 46.9082C170.415 46.9082 170.005 46.9932 169.705 47.1632C169.405 47.3332 169.255 47.5582 169.255 47.8382C169.255 48.2182 169.57 48.5182 170.2 48.7382L174.28 50.3732C175.29 50.7732 176.085 51.2732 176.665 51.8732C177.245 52.4732 177.535 53.2232 177.535 54.1232C177.535 54.9432 177.25 55.7232 176.68 56.4632C176.12 57.1932 175.35 57.7882 174.37 58.2482C173.39 58.7082 172.28 58.9382 171.04 58.9382ZM188.854 58.9382C187.094 58.9382 185.544 58.5432 184.204 57.7532C182.874 56.9632 181.834 55.7882 181.084 54.2282C180.334 52.6682 179.959 50.7332 179.959 48.4232C179.959 46.1032 180.329 44.1632 181.069 42.6032C181.819 41.0432 182.864 39.8682 184.204 39.0782C185.544 38.2782 187.094 37.8782 188.854 37.8782C191.394 37.8782 193.329 38.4782 194.659 39.6782C195.989 40.8782 196.779 42.4332 197.029 44.3432L191.929 45.2282C191.699 44.3682 191.334 43.6582 190.834 43.0982C190.344 42.5282 189.684 42.2432 188.854 42.2432C188.114 42.2432 187.459 42.4682 186.889 42.9182C186.329 43.3582 185.894 44.0332 185.584 44.9432C185.274 45.8532 185.119 47.0132 185.119 48.4232C185.119 49.8032 185.279 50.9482 185.599 51.8582C185.919 52.7582 186.359 53.4282 186.919 53.8682C187.489 54.3082 188.134 54.5282 188.854 54.5282C189.884 54.5282 190.654 54.2582 191.164 53.7182C191.674 53.1682 191.929 52.5032 191.929 51.7232H196.999C196.999 53.2732 196.684 54.5882 196.054 55.6682C195.434 56.7382 194.519 57.5532 193.309 58.1132C192.099 58.6632 190.614 58.9382 188.854 58.9382ZM207.162 58.9382C205.792 58.9382 204.532 58.6582 203.382 58.0982C202.242 57.5282 201.327 56.6682 200.637 55.5182C199.957 54.3582 199.617 52.8882 199.617 51.1082C199.617 49.2682 199.957 47.7682 200.637 46.6082C201.327 45.4482 202.242 44.5932 203.382 44.0432C204.532 43.4832 205.792 43.2032 207.162 43.2032C208.502 43.2032 209.737 43.4832 210.867 44.0432C211.997 44.5932 212.902 45.4482 213.582 46.6082C214.272 47.7682 214.617 49.2682 214.617 51.1082C214.617 52.8882 214.272 54.3582 213.582 55.5182C212.902 56.6682 211.997 57.5282 210.867 58.0982C209.737 58.6582 208.502 58.9382 207.162 58.9382ZM206.982 54.7532C207.442 54.7532 207.887 54.6332 208.317 54.3932C208.757 54.1532 209.122 53.7682 209.412 53.2382C209.702 52.6982 209.847 51.9882 209.847 51.1082C209.847 49.7382 209.602 48.7732 209.112 48.2132C208.622 47.6532 208.032 47.3732 207.342 47.3732C206.882 47.3732 206.422 47.4932 205.962 47.7332C205.512 47.9732 205.137 48.3682 204.837 48.9182C204.547 49.4582 204.402 50.1882 204.402 51.1082C204.402 52.4382 204.657 53.3782 205.167 53.9282C205.687 54.4782 206.292 54.7532 206.982 54.7532ZM237.835 58.4582V49.8482C237.835 49.0682 237.645 48.4932 237.265 48.1232C236.895 47.7432 236.43 47.5532 235.87 47.5532C235.05 47.5532 234.38 47.9082 233.86 48.6182C233.34 49.3182 233.08 50.5232 233.08 52.2332H231.19C231.19 50.4632 231.35 48.9982 231.67 47.8382C231.99 46.6682 232.43 45.7482 232.99 45.0782C233.55 44.3982 234.19 43.9182 234.91 43.6382C235.64 43.3482 236.415 43.2032 237.235 43.2032C238.495 43.2032 239.525 43.4882 240.325 44.0582C241.135 44.6282 241.73 45.4132 242.11 46.4132C242.5 47.4132 242.695 48.5582 242.695 49.8482V58.4582H237.835ZM218.47 58.4582V43.6832H222.7L223.21 45.7682C223.72 44.8782 224.355 44.2282 225.115 43.8182C225.885 43.4082 226.72 43.2032 227.62 43.2032C228.89 43.2032 229.925 43.4882 230.725 44.0582C231.535 44.6282 232.13 45.4132 232.51 46.4132C232.89 47.4132 233.08 48.5582 233.08 49.8482V58.4582H228.25V49.8482C228.25 49.0682 228.06 48.4932 227.68 48.1232C227.3 47.7432 226.84 47.5532 226.3 47.5532C225.75 47.5532 225.245 47.7082 224.785 48.0182C224.325 48.3282 223.955 48.8282 223.675 49.5182C223.405 50.1982 223.27 51.1032 223.27 52.2332V58.4582H218.47ZM266.721 58.4582V49.8482C266.721 49.0682 266.531 48.4932 266.151 48.1232C265.781 47.7432 265.316 47.5532 264.756 47.5532C263.936 47.5532 263.266 47.9082 262.746 48.6182C262.226 49.3182 261.966 50.5232 261.966 52.2332H260.076C260.076 50.4632 260.236 48.9982 260.556 47.8382C260.876 46.6682 261.316 45.7482 261.876 45.0782C262.436 44.3982 263.076 43.9182 263.796 43.6382C264.526 43.3482 265.301 43.2032 266.121 43.2032C267.381 43.2032 268.411 43.4882 269.211 44.0582C270.021 44.6282 270.616 45.4132 270.996 46.4132C271.386 47.4132 271.581 48.5582 271.581 49.8482V58.4582H266.721ZM247.356 58.4582V43.6832H251.586L252.096 45.7682C252.606 44.8782 253.241 44.2282 254.001 43.8182C254.771 43.4082 255.606 43.2032 256.506 43.2032C257.776 43.2032 258.811 43.4882 259.611 44.0582C260.421 44.6282 261.016 45.4132 261.396 46.4132C261.776 47.4132 261.966 48.5582 261.966 49.8482V58.4582H257.136V49.8482C257.136 49.0682 256.946 48.4932 256.566 48.1232C256.186 47.7432 255.726 47.5532 255.186 47.5532C254.636 47.5532 254.131 47.7082 253.671 48.0182C253.211 48.3282 252.841 48.8282 252.561 49.5182C252.291 50.1982 252.156 51.1032 252.156 52.2332V58.4582H247.356ZM282.153 58.9382C280.913 58.9382 279.748 58.6182 278.658 57.9782C277.568 57.3382 276.683 56.4232 276.003 55.2332C275.333 54.0432 274.998 52.6332 274.998 51.0032C274.998 49.3732 275.333 47.9782 276.003 46.8182C276.673 45.6482 277.553 44.7532 278.643 44.1332C279.733 43.5132 280.903 43.2032 282.153 43.2032C283.393 43.2032 284.473 43.4532 285.393 43.9532C286.313 44.4432 287.053 45.1082 287.613 45.9482C288.183 46.7882 288.553 47.7382 288.723 48.7982C288.903 49.8482 288.868 50.9332 288.618 52.0532H278.793V49.6232H285.108L284.418 50.0732C284.448 49.7232 284.433 49.3682 284.373 49.0082C284.323 48.6482 284.218 48.3182 284.058 48.0182C283.898 47.7082 283.668 47.4632 283.368 47.2832C283.078 47.0932 282.703 46.9982 282.243 46.9982C281.733 46.9982 281.288 47.1232 280.908 47.3732C280.538 47.6132 280.248 47.9682 280.038 48.4382C279.838 48.8982 279.738 49.4632 279.738 50.1332V52.0232C279.738 52.6532 279.828 53.1982 280.008 53.6582C280.188 54.1182 280.453 54.4782 280.803 54.7382C281.163 54.9882 281.613 55.1132 282.153 55.1132C282.593 55.1132 282.978 55.0232 283.308 54.8432C283.638 54.6632 283.868 54.3782 283.998 53.9882H288.768C288.618 54.9082 288.248 55.7432 287.658 56.4932C287.078 57.2432 286.318 57.8382 285.378 58.2782C284.448 58.7182 283.373 58.9382 282.153 58.9382ZM292.679 58.4582V43.5932H297.479V58.4582H292.679ZM296.459 52.1582C296.459 50.1482 296.714 48.4982 297.224 47.2082C297.734 45.9182 298.379 44.9632 299.159 44.3432C299.939 43.7232 300.734 43.4132 301.544 43.4132C301.704 43.4132 301.864 43.4232 302.024 43.4432C302.184 43.4532 302.334 43.4732 302.474 43.5032L302.519 48.3332C302.269 48.3032 302.014 48.2832 301.754 48.2732C301.494 48.2532 301.249 48.2432 301.019 48.2432C300.319 48.2432 299.699 48.3732 299.159 48.6332C298.629 48.8932 298.214 49.3082 297.914 49.8782C297.624 50.4482 297.479 51.2082 297.479 52.1582H296.459ZM311.453 58.9382C310.163 58.9382 308.963 58.6132 307.853 57.9632C306.753 57.3132 305.863 56.3982 305.183 55.2182C304.513 54.0382 304.178 52.6582 304.178 51.0782C304.178 49.3482 304.513 47.9032 305.183 46.7432C305.863 45.5732 306.753 44.6932 307.853 44.1032C308.963 43.5032 310.163 43.2032 311.453 43.2032C312.543 43.2032 313.493 43.3882 314.303 43.7582C315.123 44.1282 315.803 44.6132 316.343 45.2132C316.883 45.8132 317.283 46.4732 317.543 47.1932C317.813 47.9132 317.948 48.6182 317.948 49.3082L313.148 49.2632C313.078 48.8332 312.903 48.4432 312.623 48.0932C312.353 47.7332 311.953 47.5532 311.423 47.5532C311.003 47.5532 310.603 47.6632 310.223 47.8832C309.853 48.0932 309.548 48.4532 309.308 48.9632C309.078 49.4732 308.963 50.1782 308.963 51.0782C308.963 51.9582 309.078 52.6532 309.308 53.1632C309.548 53.6732 309.853 54.0332 310.223 54.2432C310.603 54.4532 311.003 54.5582 311.423 54.5582C312.103 54.5582 312.558 54.4032 312.788 54.0932C313.028 53.7732 313.148 53.3732 313.148 52.8932H317.948C317.948 53.9532 317.713 54.9432 317.243 55.8632C316.773 56.7832 316.058 57.5282 315.098 58.0982C314.148 58.6582 312.933 58.9382 311.453 58.9382ZM327.651 58.9382C326.411 58.9382 325.246 58.6182 324.156 57.9782C323.066 57.3382 322.181 56.4232 321.501 55.2332C320.831 54.0432 320.496 52.6332 320.496 51.0032C320.496 49.3732 320.831 47.9782 321.501 46.8182C322.171 45.6482 323.051 44.7532 324.141 44.1332C325.231 43.5132 326.401 43.2032 327.651 43.2032C328.891 43.2032 329.971 43.4532 330.891 43.9532C331.811 44.4432 332.551 45.1082 333.111 45.9482C333.681 46.7882 334.051 47.7382 334.221 48.7982C334.401 49.8482 334.366 50.9332 334.116 52.0532H324.291V49.6232H330.606L329.916 50.0732C329.946 49.7232 329.931 49.3682 329.871 49.0082C329.821 48.6482 329.716 48.3182 329.556 48.0182C329.396 47.7082 329.166 47.4632 328.866 47.2832C328.576 47.0932 328.201 46.9982 327.741 46.9982C327.231 46.9982 326.786 47.1232 326.406 47.3732C326.036 47.6132 325.746 47.9682 325.536 48.4382C325.336 48.8982 325.236 49.4632 325.236 50.1332V52.0232C325.236 52.6532 325.326 53.1982 325.506 53.6582C325.686 54.1182 325.951 54.4782 326.301 54.7382C326.661 54.9882 327.111 55.1132 327.651 55.1132C328.091 55.1132 328.476 55.0232 328.806 54.8432C329.136 54.6632 329.366 54.3782 329.496 53.9882H334.266C334.116 54.9082 333.746 55.7432 333.156 56.4932C332.576 57.2432 331.816 57.8382 330.876 58.2782C329.946 58.7182 328.871 58.9382 327.651 58.9382ZM134.182 66.1491L136.946 73.9855H137.055L139.818 66.1491H141L137.582 75.4582H136.418L133 66.1491H134.182ZM142.305 75.4582V68.4764H143.378V75.4582H142.305ZM142.85 67.3127C142.641 67.3127 142.461 67.2415 142.309 67.0991C142.161 66.9567 142.087 66.7855 142.087 66.5855C142.087 66.3855 142.161 66.2143 142.309 66.0718C142.461 65.9294 142.641 65.8582 142.85 65.8582C143.059 65.8582 143.238 65.9294 143.387 66.0718C143.538 66.2143 143.614 66.3855 143.614 66.5855C143.614 66.7855 143.538 66.9567 143.387 67.0991C143.238 67.2415 143.059 67.3127 142.85 67.3127ZM150.288 70.04L149.324 70.3127C149.264 70.1521 149.174 69.9961 149.056 69.8446C148.941 69.69 148.783 69.5627 148.583 69.4627C148.383 69.3627 148.127 69.3127 147.815 69.3127C147.388 69.3127 147.032 69.4112 146.747 69.6082C146.465 69.8021 146.324 70.0491 146.324 70.3491C146.324 70.6158 146.421 70.8264 146.615 70.9809C146.809 71.1355 147.112 71.2643 147.524 71.3673L148.561 71.6218C149.185 71.7734 149.65 72.0052 149.956 72.3173C150.262 72.6264 150.415 73.0249 150.415 73.5127C150.415 73.9127 150.3 74.2703 150.07 74.5855C149.842 74.9006 149.524 75.1491 149.115 75.3309C148.706 75.5127 148.23 75.6037 147.688 75.6037C146.976 75.6037 146.386 75.4491 145.92 75.14C145.453 74.8309 145.157 74.3794 145.033 73.7855L146.051 73.5309C146.148 73.9067 146.332 74.1885 146.601 74.3764C146.874 74.5643 147.23 74.6582 147.67 74.6582C148.17 74.6582 148.567 74.5521 148.861 74.34C149.157 74.1249 149.306 73.8673 149.306 73.5673C149.306 73.3249 149.221 73.1218 149.051 72.9582C148.882 72.7915 148.621 72.6673 148.27 72.5855L147.106 72.3127C146.467 72.1612 145.997 71.9264 145.697 71.6082C145.4 71.287 145.251 70.8855 145.251 70.4037C145.251 70.0097 145.362 69.6612 145.583 69.3582C145.807 69.0552 146.112 68.8173 146.497 68.6446C146.885 68.4718 147.324 68.3855 147.815 68.3855C148.506 68.3855 149.048 68.537 149.442 68.84C149.839 69.143 150.121 69.543 150.288 70.04ZM156.43 72.6037V68.4764H157.503V75.4582H156.43V74.2764H156.357C156.193 74.6309 155.939 74.9324 155.593 75.1809C155.248 75.4264 154.812 75.5491 154.284 75.5491C153.848 75.5491 153.46 75.4537 153.121 75.2627C152.781 75.0688 152.515 74.7779 152.321 74.39C152.127 73.9991 152.03 73.5067 152.03 72.9127V68.4764H153.103V72.84C153.103 73.3491 153.245 73.7552 153.53 74.0582C153.818 74.3612 154.184 74.5127 154.63 74.5127C154.896 74.5127 155.168 74.4446 155.443 74.3082C155.722 74.1718 155.956 73.9627 156.143 73.6809C156.334 73.3991 156.43 73.04 156.43 72.6037ZM161.522 75.6218C161.079 75.6218 160.678 75.5385 160.317 75.3718C159.957 75.2021 159.67 74.9582 159.458 74.64C159.246 74.3188 159.14 73.9309 159.14 73.4764C159.14 73.0764 159.219 72.7521 159.376 72.5037C159.534 72.2521 159.745 72.0552 160.008 71.9127C160.272 71.7703 160.563 71.6643 160.881 71.5946C161.202 71.5218 161.525 71.4643 161.849 71.4218C162.273 71.3673 162.617 71.3264 162.881 71.2991C163.148 71.2688 163.342 71.2188 163.463 71.1491C163.587 71.0794 163.649 70.9582 163.649 70.7855V70.7491C163.649 70.3006 163.526 69.9521 163.281 69.7037C163.039 69.4552 162.67 69.3309 162.176 69.3309C161.664 69.3309 161.263 69.443 160.972 69.6673C160.681 69.8915 160.476 70.1309 160.358 70.3855L159.34 70.0218C159.522 69.5976 159.764 69.2673 160.067 69.0309C160.373 68.7915 160.707 68.6249 161.067 68.5309C161.431 68.434 161.789 68.3855 162.14 68.3855C162.364 68.3855 162.622 68.4127 162.913 68.4673C163.207 68.5188 163.49 68.6264 163.763 68.79C164.039 68.9537 164.267 69.2006 164.449 69.5309C164.631 69.8612 164.722 70.3037 164.722 70.8582V75.4582H163.649V74.5127H163.595C163.522 74.6643 163.401 74.8264 163.231 74.9991C163.061 75.1718 162.836 75.3188 162.554 75.44C162.272 75.5612 161.928 75.6218 161.522 75.6218ZM161.686 74.6582C162.11 74.6582 162.467 74.5749 162.758 74.4082C163.052 74.2415 163.273 74.0264 163.422 73.7627C163.573 73.4991 163.649 73.2218 163.649 72.9309V71.9491C163.604 72.0037 163.504 72.0537 163.349 72.0991C163.198 72.1415 163.022 72.1794 162.822 72.2127C162.625 72.243 162.432 72.2703 162.245 72.2946C162.06 72.3158 161.91 72.334 161.795 72.3491C161.516 72.3855 161.255 72.4446 161.013 72.5264C160.773 72.6052 160.579 72.7249 160.431 72.8855C160.286 73.043 160.213 73.2582 160.213 73.5309C160.213 73.9037 160.351 74.1855 160.626 74.3764C160.905 74.5643 161.258 74.6582 161.686 74.6582ZM167.753 66.1491V75.4582H166.68V66.1491H167.753ZM169.717 75.4582V68.4764H170.79V75.4582H169.717ZM170.263 67.3127C170.054 67.3127 169.873 67.2415 169.722 67.0991C169.573 66.9567 169.499 66.7855 169.499 66.5855C169.499 66.3855 169.573 66.2143 169.722 66.0718C169.873 65.9294 170.054 65.8582 170.263 65.8582C170.472 65.8582 170.651 65.9294 170.799 66.0718C170.951 66.2143 171.026 66.3855 171.026 66.5855C171.026 66.7855 170.951 66.9567 170.799 67.0991C170.651 67.2415 170.472 67.3127 170.263 67.3127ZM172.555 75.4582V74.64L176.518 69.5491V69.4764H172.682V68.4764H177.9V69.3309L174.046 74.3855V74.4582H178.028V75.4582H172.555ZM181.734 75.6218C181.292 75.6218 180.89 75.5385 180.53 75.3718C180.169 75.2021 179.883 74.9582 179.671 74.64C179.459 74.3188 179.353 73.9309 179.353 73.4764C179.353 73.0764 179.431 72.7521 179.589 72.5037C179.746 72.2521 179.957 72.0552 180.221 71.9127C180.484 71.7703 180.775 71.6643 181.093 71.5946C181.415 71.5218 181.737 71.4643 182.062 71.4218C182.486 71.3673 182.83 71.3264 183.093 71.2991C183.36 71.2688 183.554 71.2188 183.675 71.1491C183.8 71.0794 183.862 70.9582 183.862 70.7855V70.7491C183.862 70.3006 183.739 69.9521 183.493 69.7037C183.251 69.4552 182.883 69.3309 182.389 69.3309C181.877 69.3309 181.475 69.443 181.184 69.6673C180.893 69.8915 180.689 70.1309 180.571 70.3855L179.553 70.0218C179.734 69.5976 179.977 69.2673 180.28 69.0309C180.586 68.7915 180.919 68.6249 181.28 68.5309C181.643 68.434 182.001 68.3855 182.353 68.3855C182.577 68.3855 182.834 68.4127 183.125 68.4673C183.419 68.5188 183.703 68.6264 183.975 68.79C184.251 68.9537 184.48 69.2006 184.662 69.5309C184.843 69.8612 184.934 70.3037 184.934 70.8582V75.4582H183.862V74.5127H183.807C183.734 74.6643 183.613 74.8264 183.443 74.9991C183.274 75.1718 183.048 75.3188 182.766 75.44C182.484 75.5612 182.14 75.6218 181.734 75.6218ZM181.898 74.6582C182.322 74.6582 182.68 74.5749 182.971 74.4082C183.265 74.2415 183.486 74.0264 183.634 73.7627C183.786 73.4991 183.862 73.2218 183.862 72.9309V71.9491C183.816 72.0037 183.716 72.0537 183.562 72.0991C183.41 72.1415 183.234 72.1794 183.034 72.2127C182.837 72.243 182.645 72.2703 182.457 72.2946C182.272 72.3158 182.122 72.334 182.007 72.3491C181.728 72.3855 181.468 72.4446 181.225 72.5264C180.986 72.6052 180.792 72.7249 180.643 72.8855C180.498 73.043 180.425 73.2582 180.425 73.5309C180.425 73.9037 180.563 74.1855 180.839 74.3764C181.118 74.5643 181.471 74.6582 181.898 74.6582ZM189.929 68.4764V69.3855H186.311V68.4764H189.929ZM187.365 66.8037H188.438V73.4582C188.438 73.7612 188.482 73.9885 188.57 74.14C188.661 74.2885 188.776 74.3885 188.915 74.44C189.057 74.4885 189.207 74.5127 189.365 74.5127C189.483 74.5127 189.58 74.5067 189.656 74.4946C189.732 74.4794 189.792 74.4673 189.838 74.4582L190.056 75.4218C189.983 75.4491 189.882 75.4764 189.751 75.5037C189.621 75.534 189.456 75.5491 189.256 75.5491C188.953 75.5491 188.656 75.484 188.365 75.3537C188.077 75.2234 187.838 75.0249 187.647 74.7582C187.459 74.4915 187.365 74.1552 187.365 73.7491V66.8037ZM191.542 75.4582V68.4764H192.615V75.4582H191.542ZM192.088 67.3127C191.879 67.3127 191.698 67.2415 191.547 67.0991C191.398 66.9567 191.324 66.7855 191.324 66.5855C191.324 66.3855 191.398 66.2143 191.547 66.0718C191.698 65.9294 191.879 65.8582 192.088 65.8582C192.297 65.8582 192.476 65.9294 192.624 66.0718C192.776 66.2143 192.851 66.3855 192.851 66.5855C192.851 66.7855 192.776 66.9567 192.624 67.0991C192.476 67.2415 192.297 67.3127 192.088 67.3127ZM197.416 75.6037C196.786 75.6037 196.233 75.4537 195.757 75.1537C195.284 74.8537 194.915 74.434 194.648 73.8946C194.384 73.3552 194.253 72.7249 194.253 72.0037C194.253 71.2764 194.384 70.6415 194.648 70.0991C194.915 69.5567 195.284 69.1355 195.757 68.8355C196.233 68.5355 196.786 68.3855 197.416 68.3855C198.046 68.3855 198.598 68.5355 199.071 68.8355C199.546 69.1355 199.916 69.5567 200.18 70.0991C200.446 70.6415 200.58 71.2764 200.58 72.0037C200.58 72.7249 200.446 73.3552 200.18 73.8946C199.916 74.434 199.546 74.8537 199.071 75.1537C198.598 75.4537 198.046 75.6037 197.416 75.6037ZM197.416 74.64C197.895 74.64 198.289 74.5173 198.598 74.2718C198.907 74.0264 199.136 73.7037 199.284 73.3037C199.433 72.9037 199.507 72.4703 199.507 72.0037C199.507 71.537 199.433 71.1021 199.284 70.6991C199.136 70.2961 198.907 69.9703 198.598 69.7218C198.289 69.4734 197.895 69.3491 197.416 69.3491C196.937 69.3491 196.543 69.4734 196.234 69.7218C195.925 69.9703 195.696 70.2961 195.548 70.6991C195.4 71.1021 195.325 71.537 195.325 72.0037C195.325 72.4703 195.4 72.9037 195.548 73.3037C195.696 73.7037 195.925 74.0264 196.234 74.2718C196.543 74.5173 196.937 74.64 197.416 74.64ZM203.29 71.2582V75.4582H202.217V68.4764H203.254V69.5673H203.345C203.508 69.2127 203.757 68.9279 204.09 68.7127C204.423 68.4946 204.854 68.3855 205.381 68.3855C205.854 68.3855 206.267 68.4824 206.622 68.6764C206.976 68.8673 207.252 69.1582 207.449 69.5491C207.646 69.937 207.745 70.4279 207.745 71.0218V75.4582H206.672V71.0946C206.672 70.5461 206.529 70.1188 206.245 69.8127C205.96 69.5037 205.569 69.3491 205.072 69.3491C204.729 69.3491 204.423 69.4234 204.154 69.5718C203.887 69.7203 203.676 69.937 203.522 70.2218C203.367 70.5067 203.29 70.8521 203.29 71.2582ZM213.45 75.4582V66.1491H216.596C217.326 66.1491 217.923 66.2809 218.387 66.5446C218.853 66.8052 219.199 67.1582 219.423 67.6037C219.647 68.0491 219.759 68.5461 219.759 69.0946C219.759 69.643 219.647 70.1415 219.423 70.59C219.202 71.0385 218.859 71.3961 218.396 71.6627C217.932 71.9264 217.338 72.0582 216.614 72.0582H214.359V71.0582H216.578C217.078 71.0582 217.479 70.9718 217.782 70.7991C218.085 70.6264 218.305 70.393 218.441 70.0991C218.581 69.8021 218.65 69.4673 218.65 69.0946C218.65 68.7218 218.581 68.3885 218.441 68.0946C218.305 67.8006 218.084 67.5703 217.778 67.4037C217.471 67.234 217.065 67.1491 216.559 67.1491H214.578V75.4582H213.45ZM224.191 75.6037C223.561 75.6037 223.008 75.4537 222.532 75.1537C222.059 74.8537 221.69 74.434 221.423 73.8946C221.159 73.3552 221.028 72.7249 221.028 72.0037C221.028 71.2764 221.159 70.6415 221.423 70.0991C221.69 69.5567 222.059 69.1355 222.532 68.8355C223.008 68.5355 223.561 68.3855 224.191 68.3855C224.821 68.3855 225.373 68.5355 225.846 68.8355C226.321 69.1355 226.691 69.5567 226.955 70.0991C227.221 70.6415 227.355 71.2764 227.355 72.0037C227.355 72.7249 227.221 73.3552 226.955 73.8946C226.691 74.434 226.321 74.8537 225.846 75.1537C225.373 75.4537 224.821 75.6037 224.191 75.6037ZM224.191 74.64C224.67 74.64 225.064 74.5173 225.373 74.2718C225.682 74.0264 225.911 73.7037 226.059 73.3037C226.208 72.9037 226.282 72.4703 226.282 72.0037C226.282 71.537 226.208 71.1021 226.059 70.6991C225.911 70.2961 225.682 69.9703 225.373 69.7218C225.064 69.4734 224.67 69.3491 224.191 69.3491C223.712 69.3491 223.318 69.4734 223.009 69.7218C222.7 69.9703 222.471 70.2961 222.323 70.6991C222.175 71.1021 222.1 71.537 222.1 72.0037C222.1 72.4703 222.175 72.9037 222.323 73.3037C222.471 73.7037 222.7 74.0264 223.009 74.2718C223.318 74.5173 223.712 74.64 224.191 74.64ZM230.337 75.4582L228.209 68.4764H229.337L230.846 73.8218H230.918L232.409 68.4764H233.555L235.028 73.8037H235.1L236.609 68.4764H237.737L235.609 75.4582H234.555L233.028 70.0946H232.918L231.391 75.4582H230.337ZM241.845 75.6037C241.172 75.6037 240.592 75.4552 240.104 75.1582C239.619 74.8582 239.245 74.44 238.981 73.9037C238.72 73.3643 238.59 72.737 238.59 72.0218C238.59 71.3067 238.72 70.6764 238.981 70.1309C239.245 69.5824 239.611 69.1552 240.081 68.8491C240.554 68.54 241.105 68.3855 241.736 68.3855C242.099 68.3855 242.458 68.4461 242.813 68.5673C243.167 68.6885 243.49 68.8855 243.781 69.1582C244.072 69.4279 244.304 69.7855 244.476 70.2309C244.649 70.6764 244.736 71.2249 244.736 71.8764V72.3309H239.354V71.4037H243.645C243.645 71.0097 243.566 70.6582 243.408 70.3491C243.254 70.04 243.032 69.7961 242.745 69.6173C242.46 69.4385 242.123 69.3491 241.736 69.3491C241.308 69.3491 240.939 69.4552 240.626 69.6673C240.317 69.8764 240.079 70.1491 239.913 70.4855C239.746 70.8218 239.663 71.1824 239.663 71.5673V72.1855C239.663 72.7127 239.754 73.1597 239.936 73.5264C240.12 73.89 240.376 74.1673 240.704 74.3582C241.031 74.5461 241.411 74.64 241.845 74.64C242.126 74.64 242.381 74.6006 242.608 74.5218C242.839 74.44 243.037 74.3188 243.204 74.1582C243.37 73.9946 243.499 73.7915 243.59 73.5491L244.626 73.84C244.517 74.1915 244.334 74.5006 244.076 74.7673C243.819 75.0309 243.501 75.237 243.122 75.3855C242.743 75.5309 242.317 75.6037 241.845 75.6037ZM246.367 75.4582V68.4764H247.404V69.5309H247.476C247.604 69.1855 247.834 68.9052 248.167 68.69C248.501 68.4749 248.876 68.3673 249.295 68.3673C249.373 68.3673 249.472 68.3688 249.59 68.3718C249.708 68.3749 249.798 68.3794 249.858 68.3855V69.4764C249.822 69.4673 249.739 69.4537 249.608 69.4355C249.481 69.4143 249.346 69.4037 249.204 69.4037C248.864 69.4037 248.561 69.4749 248.295 69.6173C248.031 69.7567 247.822 69.9506 247.667 70.1991C247.516 70.4446 247.44 70.7249 247.44 71.04V75.4582H246.367ZM253.845 75.6037C253.172 75.6037 252.592 75.4552 252.104 75.1582C251.619 74.8582 251.245 74.44 250.981 73.9037C250.72 73.3643 250.59 72.737 250.59 72.0218C250.59 71.3067 250.72 70.6764 250.981 70.1309C251.245 69.5824 251.611 69.1552 252.081 68.8491C252.554 68.54 253.105 68.3855 253.736 68.3855C254.099 68.3855 254.458 68.4461 254.813 68.5673C255.167 68.6885 255.49 68.8855 255.781 69.1582C256.072 69.4279 256.304 69.7855 256.476 70.2309C256.649 70.6764 256.736 71.2249 256.736 71.8764V72.3309H251.354V71.4037H255.645C255.645 71.0097 255.566 70.6582 255.408 70.3491C255.254 70.04 255.032 69.7961 254.745 69.6173C254.46 69.4385 254.123 69.3491 253.736 69.3491C253.308 69.3491 252.939 69.4552 252.626 69.6673C252.317 69.8764 252.079 70.1491 251.913 70.4855C251.746 70.8218 251.663 71.1824 251.663 71.5673V72.1855C251.663 72.7127 251.754 73.1597 251.936 73.5264C252.12 73.89 252.376 74.1673 252.704 74.3582C253.031 74.5461 253.411 74.64 253.845 74.64C254.126 74.64 254.381 74.6006 254.608 74.5218C254.839 74.44 255.037 74.3188 255.204 74.1582C255.37 73.9946 255.499 73.7915 255.59 73.5491L256.626 73.84C256.517 74.1915 256.334 74.5006 256.076 74.7673C255.819 75.0309 255.501 75.237 255.122 75.3855C254.743 75.5309 254.317 75.6037 253.845 75.6037ZM261.004 75.6037C260.422 75.6037 259.908 75.4567 259.463 75.1627C259.017 74.8658 258.669 74.4476 258.417 73.9082C258.166 73.3658 258.04 72.7249 258.04 71.9855C258.04 71.2521 258.166 70.6158 258.417 70.0764C258.669 69.537 259.019 69.1203 259.467 68.8264C259.916 68.5324 260.434 68.3855 261.022 68.3855C261.476 68.3855 261.836 68.4612 262.099 68.6127C262.366 68.7612 262.569 68.9309 262.708 69.1218C262.851 69.3097 262.961 69.4643 263.04 69.5855H263.131V66.1491H264.204V75.4582H263.167V74.3855H263.04C262.961 74.5127 262.849 74.6734 262.704 74.8673C262.558 75.0582 262.351 75.2294 262.081 75.3809C261.811 75.5294 261.452 75.6037 261.004 75.6037ZM261.149 74.64C261.579 74.64 261.943 74.5279 262.24 74.3037C262.537 74.0764 262.763 73.7627 262.917 73.3627C263.072 72.9597 263.149 72.4946 263.149 71.9673C263.149 71.4461 263.073 70.99 262.922 70.5991C262.77 70.2052 262.546 69.8991 262.249 69.6809C261.952 69.4597 261.586 69.3491 261.149 69.3491C260.695 69.3491 260.316 69.4658 260.013 69.6991C259.713 69.9294 259.487 70.243 259.336 70.64C259.187 71.034 259.113 71.4764 259.113 71.9673C259.113 72.4643 259.189 72.9158 259.34 73.3218C259.495 73.7249 259.722 74.0461 260.022 74.2855C260.325 74.5218 260.701 74.64 261.149 74.64ZM277.554 69.0582H276.426C276.36 68.734 276.243 68.4491 276.076 68.2037C275.913 67.9582 275.713 67.7521 275.476 67.5855C275.243 67.4158 274.984 67.2885 274.699 67.2037C274.414 67.1188 274.117 67.0764 273.808 67.0764C273.245 67.0764 272.734 67.2188 272.276 67.5037C271.822 67.7885 271.46 68.2082 271.19 68.7627C270.923 69.3173 270.79 69.9976 270.79 70.8037C270.79 71.6097 270.923 72.29 271.19 72.8446C271.46 73.3991 271.822 73.8188 272.276 74.1037C272.734 74.3885 273.245 74.5309 273.808 74.5309C274.117 74.5309 274.414 74.4885 274.699 74.4037C274.984 74.3188 275.243 74.193 275.476 74.0264C275.713 73.8567 275.913 73.6491 276.076 73.4037C276.243 73.1552 276.36 72.8703 276.426 72.5491H277.554C277.469 73.0249 277.314 73.4506 277.09 73.8264C276.866 74.2021 276.587 74.5218 276.254 74.7855C275.92 75.0461 275.546 75.2446 275.131 75.3809C274.719 75.5173 274.278 75.5855 273.808 75.5855C273.014 75.5855 272.308 75.3915 271.69 75.0037C271.072 74.6158 270.585 74.0643 270.231 73.3491C269.876 72.634 269.699 71.7855 269.699 70.8037C269.699 69.8218 269.876 68.9734 270.231 68.2582C270.585 67.543 271.072 66.9915 271.69 66.6037C272.308 66.2158 273.014 66.0218 273.808 66.0218C274.278 66.0218 274.719 66.09 275.131 66.2264C275.546 66.3627 275.92 66.5627 276.254 66.8264C276.587 67.087 276.866 67.4052 277.09 67.7809C277.314 68.1537 277.469 68.5794 277.554 69.0582ZM282.066 75.6037C281.436 75.6037 280.883 75.4537 280.407 75.1537C279.934 74.8537 279.565 74.434 279.298 73.8946C279.034 73.3552 278.903 72.7249 278.903 72.0037C278.903 71.2764 279.034 70.6415 279.298 70.0991C279.565 69.5567 279.934 69.1355 280.407 68.8355C280.883 68.5355 281.436 68.3855 282.066 68.3855C282.696 68.3855 283.248 68.5355 283.721 68.8355C284.196 69.1355 284.566 69.5567 284.83 70.0991C285.096 70.6415 285.23 71.2764 285.23 72.0037C285.23 72.7249 285.096 73.3552 284.83 73.8946C284.566 74.434 284.196 74.8537 283.721 75.1537C283.248 75.4537 282.696 75.6037 282.066 75.6037ZM282.066 74.64C282.545 74.64 282.939 74.5173 283.248 74.2718C283.557 74.0264 283.786 73.7037 283.934 73.3037C284.083 72.9037 284.157 72.4703 284.157 72.0037C284.157 71.537 284.083 71.1021 283.934 70.6991C283.786 70.2961 283.557 69.9703 283.248 69.7218C282.939 69.4734 282.545 69.3491 282.066 69.3491C281.587 69.3491 281.193 69.4734 280.884 69.7218C280.575 69.9703 280.346 70.2961 280.198 70.6991C280.05 71.1021 279.975 71.537 279.975 72.0037C279.975 72.4703 280.05 72.9037 280.198 73.3037C280.346 73.7037 280.575 74.0264 280.884 74.2718C281.193 74.5173 281.587 74.64 282.066 74.64ZM286.867 75.4582V68.4764H287.904V69.5673H287.995C288.14 69.1946 288.375 68.9052 288.699 68.6991C289.023 68.49 289.413 68.3855 289.867 68.3855C290.328 68.3855 290.711 68.49 291.017 68.6991C291.326 68.9052 291.567 69.1946 291.74 69.5673H291.813C291.992 69.2067 292.26 68.9203 292.617 68.7082C292.975 68.493 293.404 68.3855 293.904 68.3855C294.528 68.3855 295.039 68.5809 295.436 68.9718C295.832 69.3597 296.031 69.9643 296.031 70.7855V75.4582H294.958V70.7855C294.958 70.2703 294.817 69.9021 294.536 69.6809C294.254 69.4597 293.922 69.3491 293.54 69.3491C293.049 69.3491 292.669 69.4976 292.399 69.7946C292.129 70.0885 291.995 70.4612 291.995 70.9127V75.4582H290.904V70.6764C290.904 70.2794 290.775 69.9597 290.517 69.7173C290.26 69.4718 289.928 69.3491 289.522 69.3491C289.243 69.3491 288.982 69.4234 288.74 69.5718C288.501 69.7203 288.307 69.9264 288.158 70.19C288.013 70.4506 287.94 70.7521 287.94 71.0946V75.4582H286.867ZM297.992 75.4582V68.4764H299.029V69.5673H299.12C299.265 69.1946 299.5 68.9052 299.824 68.6991C300.148 68.49 300.538 68.3855 300.992 68.3855C301.453 68.3855 301.836 68.49 302.142 68.6991C302.451 68.9052 302.692 69.1946 302.865 69.5673H302.938C303.117 69.2067 303.385 68.9203 303.742 68.7082C304.1 68.493 304.529 68.3855 305.029 68.3855C305.653 68.3855 306.164 68.5809 306.561 68.9718C306.957 69.3597 307.156 69.9643 307.156 70.7855V75.4582H306.083V70.7855C306.083 70.2703 305.942 69.9021 305.661 69.6809C305.379 69.4597 305.047 69.3491 304.665 69.3491C304.174 69.3491 303.794 69.4976 303.524 69.7946C303.254 70.0885 303.12 70.4612 303.12 70.9127V75.4582H302.029V70.6764C302.029 70.2794 301.9 69.9597 301.642 69.7173C301.385 69.4718 301.053 69.3491 300.647 69.3491C300.368 69.3491 300.107 69.4234 299.865 69.5718C299.626 69.7203 299.432 69.9264 299.283 70.19C299.138 70.4506 299.065 70.7521 299.065 71.0946V75.4582H297.992ZM312.045 75.6037C311.372 75.6037 310.792 75.4552 310.304 75.1582C309.819 74.8582 309.445 74.44 309.181 73.9037C308.92 73.3643 308.79 72.737 308.79 72.0218C308.79 71.3067 308.92 70.6764 309.181 70.1309C309.445 69.5824 309.811 69.1552 310.281 68.8491C310.754 68.54 311.305 68.3855 311.936 68.3855C312.299 68.3855 312.658 68.4461 313.013 68.5673C313.367 68.6885 313.69 68.8855 313.981 69.1582C314.272 69.4279 314.504 69.7855 314.676 70.2309C314.849 70.6764 314.936 71.2249 314.936 71.8764V72.3309H309.554V71.4037H313.845C313.845 71.0097 313.766 70.6582 313.608 70.3491C313.454 70.04 313.232 69.7961 312.945 69.6173C312.66 69.4385 312.323 69.3491 311.936 69.3491C311.508 69.3491 311.139 69.4552 310.826 69.6673C310.517 69.8764 310.279 70.1491 310.113 70.4855C309.946 70.8218 309.863 71.1824 309.863 71.5673V72.1855C309.863 72.7127 309.954 73.1597 310.136 73.5264C310.32 73.89 310.576 74.1673 310.904 74.3582C311.231 74.5461 311.611 74.64 312.045 74.64C312.326 74.64 312.581 74.6006 312.808 74.5218C313.039 74.44 313.237 74.3188 313.404 74.1582C313.57 73.9946 313.699 73.7915 313.79 73.5491L314.826 73.84C314.717 74.1915 314.534 74.5006 314.276 74.7673C314.019 75.0309 313.701 75.237 313.322 75.3855C312.943 75.5309 312.517 75.6037 312.045 75.6037ZM316.567 75.4582V68.4764H317.604V69.5309H317.676C317.804 69.1855 318.034 68.9052 318.367 68.69C318.701 68.4749 319.076 68.3673 319.495 68.3673C319.573 68.3673 319.672 68.3688 319.79 68.3718C319.908 68.3749 319.998 68.3794 320.058 68.3855V69.4764C320.022 69.4673 319.939 69.4537 319.808 69.4355C319.681 69.4143 319.546 69.4037 319.404 69.4037C319.064 69.4037 318.761 69.4749 318.495 69.6173C318.231 69.7567 318.022 69.9506 317.867 70.1991C317.716 70.4446 317.64 70.7249 317.64 71.04V75.4582H316.567ZM323.954 75.6037C323.299 75.6037 322.736 75.4491 322.263 75.14C321.79 74.8309 321.426 74.4052 321.172 73.8627C320.917 73.3203 320.79 72.7006 320.79 72.0037C320.79 71.2946 320.92 70.6688 321.181 70.1264C321.445 69.5809 321.811 69.1552 322.281 68.8491C322.754 68.54 323.305 68.3855 323.936 68.3855C324.426 68.3855 324.869 68.4764 325.263 68.6582C325.657 68.84 325.979 69.0946 326.231 69.4218C326.482 69.7491 326.639 70.1309 326.699 70.5673H325.626C325.545 70.2491 325.363 69.9673 325.081 69.7218C324.802 69.4734 324.426 69.3491 323.954 69.3491C323.536 69.3491 323.169 69.4582 322.854 69.6764C322.542 69.8915 322.298 70.1961 322.122 70.59C321.949 70.9809 321.863 71.44 321.863 71.9673C321.863 72.5067 321.948 72.9764 322.117 73.3764C322.29 73.7764 322.532 74.087 322.845 74.3082C323.16 74.5294 323.529 74.64 323.954 74.64C324.232 74.64 324.486 74.5915 324.713 74.4946C324.94 74.3976 325.132 74.2582 325.29 74.0764C325.448 73.8946 325.56 73.6764 325.626 73.4218H326.699C326.639 73.834 326.489 74.2052 326.249 74.5355C326.013 74.8627 325.699 75.1234 325.308 75.3173C324.92 75.5082 324.469 75.6037 323.954 75.6037ZM331.195 75.6037C330.522 75.6037 329.942 75.4552 329.454 75.1582C328.969 74.8582 328.595 74.44 328.331 73.9037C328.07 73.3643 327.94 72.737 327.94 72.0218C327.94 71.3067 328.07 70.6764 328.331 70.1309C328.595 69.5824 328.961 69.1552 329.431 68.8491C329.904 68.54 330.455 68.3855 331.086 68.3855C331.449 68.3855 331.808 68.4461 332.163 68.5673C332.517 68.6885 332.84 68.8855 333.131 69.1582C333.422 69.4279 333.654 69.7855 333.826 70.2309C333.999 70.6764 334.086 71.2249 334.086 71.8764V72.3309H328.704V71.4037H332.995C332.995 71.0097 332.916 70.6582 332.758 70.3491C332.604 70.04 332.382 69.7961 332.095 69.6173C331.81 69.4385 331.473 69.3491 331.086 69.3491C330.658 69.3491 330.289 69.4552 329.976 69.6673C329.667 69.8764 329.429 70.1491 329.263 70.4855C329.096 70.8218 329.013 71.1824 329.013 71.5673V72.1855C329.013 72.7127 329.104 73.1597 329.286 73.5264C329.47 73.89 329.726 74.1673 330.054 74.3582C330.381 74.5461 330.761 74.64 331.195 74.64C331.476 74.64 331.731 74.6006 331.958 74.5218C332.189 74.44 332.387 74.3188 332.554 74.1582C332.72 73.9946 332.849 73.7915 332.94 73.5491L333.976 73.84C333.867 74.1915 333.684 74.5006 333.426 74.7673C333.169 75.0309 332.851 75.237 332.472 75.3855C332.093 75.5309 331.667 75.6037 331.195 75.6037Z" fill="black"/>
</g>
<defs>
<clipPath id="clip0_494_398">
<rect width="344.334" height="110.005" fill="white" transform="translate(0 0.997723)"/>
</clipPath>
</defs>
</svg>
