<svg width="110" height="112" viewBox="0 0 110 112" fill="none" xmlns="http://www.w3.org/2000/svg">
<path d="M100 55.9741C100.065 80.7791 79.88 100.981 55.0022 101.002C30.146 101.02 9.98699 80.8659 10 56.0089C10.013 31.1908 30.081 11.0848 54.9111 10.998C79.6718 10.9155 99.9306 31.1214 99.9957 55.9741H100ZM55.0629 13.2411C31.6597 13.0632 12.4158 32.1497 12.1816 55.5229C11.9387 79.4081 31.1436 98.6898 54.6942 98.8329C78.9172 98.9848 97.6406 79.2215 97.7881 56.3126C97.9399 32.6704 78.6049 13.1023 55.0629 13.2411Z" fill="black"/>
<path d="M55.0633 13.2411C78.6053 13.1023 97.9403 32.6704 97.7885 56.3126C97.641 79.2215 78.9176 98.9805 54.6946 98.8329C31.144 98.6854 11.9391 79.4081 12.182 55.5229C12.4162 32.1497 31.6601 13.0633 55.0633 13.2411ZM55.0069 14.4126C32.0938 14.3953 13.4788 32.9741 13.4311 55.9177C13.379 78.9959 31.8943 97.54 55.0243 97.579C77.8853 97.6137 96.4787 79.0827 96.5697 56.1694C96.6608 33.1693 78.0111 14.43 55.0069 14.4126Z" fill="white"/>
<path d="M55.0066 14.4125C78.0065 14.4299 96.6605 33.1693 96.5694 56.1693C96.4783 79.0826 77.885 97.6136 55.024 97.5789C31.894 97.5399 13.383 78.9958 13.4308 55.9176C13.4785 32.974 32.0935 14.3952 55.0066 14.4125ZM79.8975 52.9108C81.5282 52.6852 81.8015 52.2947 81.1075 51.2144C80.6608 50.5202 79.9192 49.7739 79.1688 49.57C76.6316 48.8714 74.5671 47.4873 72.5504 45.8646C69.857 43.6909 67.1116 43.6128 64.1536 45.3657C63.7243 45.6173 63.3166 45.9037 62.8742 46.1249C61.6078 46.7671 60.3326 47.214 58.9274 46.4417C58.7105 46.3202 58.0686 46.4677 58.0253 46.6109C57.7217 47.6782 56.967 47.3919 56.2037 47.3485V31.9284C56.7588 31.8676 57.2619 31.8155 57.8995 31.7461C56.9757 29.286 56.0909 26.9257 55.2061 24.5654C55.1107 24.5654 55.0196 24.5697 54.9242 24.5741C54.0394 26.9344 53.159 29.299 52.2439 31.7418C52.8207 31.8155 53.2588 31.8719 53.7749 31.937V47.5437C53.2327 47.3311 52.5605 47.2704 52.4564 46.9927C52.0791 46.0035 51.5065 46.3202 50.8256 46.5154C50.2705 46.676 49.6199 46.8582 49.1038 46.7064C48.0629 46.407 47.0046 46.0165 46.1025 45.4307C43.4872 43.7386 40.269 43.6345 37.8749 45.652C35.7107 47.4743 33.3816 48.8237 30.7056 49.6871C30.0637 49.8954 29.4175 50.4768 29.0402 51.0625C28.3029 52.2123 28.5848 52.7113 30.1244 52.9933C29.6127 53.6137 29.27 54.2689 28.7322 54.6464C26.7024 56.0782 24.4081 57.0978 21.9663 57.3104C20.3399 57.4536 18.644 56.8418 16.9829 56.5468C16.8267 56.5207 16.7096 56.3081 16.5492 56.2517C16.2369 56.1389 15.9116 56.0738 15.5906 55.9914C15.5256 56.3515 15.3564 56.7247 15.4128 57.0631C15.6297 58.3257 16.7573 59.1631 18.3751 59.3887C19.6936 59.5709 20.9557 59.662 22.1181 60.6209C29.565 66.7734 37.0725 72.8477 44.5758 78.9307C47.087 80.9656 49.6589 82.9224 52.1528 84.9747C52.5952 85.3391 52.8164 85.9856 53.0983 86.5236C53.2848 86.8794 53.4019 87.2743 53.5537 87.6517C53.918 87.4955 54.2867 87.348 54.6423 87.1745C54.7941 87.1007 54.9155 86.9749 55.0804 86.8491C55.2799 87.0096 55.4317 87.1571 55.6051 87.2656C55.9738 87.4955 56.3598 87.7038 56.7371 87.9164C56.8976 87.4825 57.0364 87.04 57.2186 86.6191C57.4137 86.1722 57.5482 85.6168 57.8908 85.3218C59.1529 84.2327 60.5018 83.2478 61.7986 82.1935C70.243 75.3555 78.6961 68.5262 87.1058 61.6449C88.5674 60.4517 90.0073 59.4104 91.9721 59.3019C92.4752 59.2759 93.0824 59.072 93.4337 58.7335C93.9671 58.2216 94.3705 57.549 94.7305 56.8895C94.8389 56.69 94.7131 56.1867 94.531 56.0565C94.3488 55.9263 93.9541 56.0695 93.6592 56.1346C93.1344 56.2517 92.6183 56.3993 92.0978 56.5294C91.5904 56.6552 91.0873 56.7811 90.5755 56.8852C89.7341 57.0588 88.7842 57.5404 88.06 57.3191C85.874 56.6509 83.7358 55.7788 81.6583 54.8199C81.0034 54.5206 80.5914 53.6918 79.8888 52.9065L79.8975 52.9108Z" fill="#FB1807"/>
<path d="M79.8974 52.9109C80.6044 53.7005 81.0164 54.5249 81.667 54.8243C83.7488 55.7831 85.8827 56.6552 88.0686 57.3234C88.7973 57.5447 89.7428 57.0631 90.5842 56.8895C91.0959 56.7854 91.5991 56.6596 92.1065 56.5338C92.627 56.4036 93.1431 56.2561 93.6679 56.1389C93.9585 56.0738 94.3575 55.9307 94.5396 56.0608C94.7218 56.191 94.8476 56.6943 94.7391 56.8939C94.3792 57.5534 93.9758 58.2259 93.4423 58.7379C93.0867 59.0763 92.4838 59.2802 91.9807 59.3063C90.016 59.4147 88.5717 60.456 87.1144 61.6492C78.7047 68.5306 70.2516 75.3555 61.8072 82.1978C60.5104 83.2478 59.1616 84.2371 57.8995 85.3261C57.5568 85.6212 57.4224 86.1722 57.2272 86.6234C57.0451 87.0443 56.9019 87.4868 56.7458 87.9207C56.3685 87.7038 55.9868 87.4955 55.6138 87.2699C55.4403 87.1614 55.2885 87.0139 55.089 86.8534C54.9242 86.9749 54.7984 87.105 54.651 87.1788C54.2953 87.3524 53.9267 87.4999 53.5623 87.6561C53.4149 87.2786 53.2978 86.8881 53.1069 86.528C52.825 85.99 52.6038 85.3435 52.1614 84.979C49.6676 82.9268 47.0957 80.97 44.5844 78.9351C37.0812 72.852 29.5736 66.7777 22.1267 60.6253C20.9687 59.6664 19.7022 59.5753 18.3837 59.393C16.766 59.1674 15.634 58.33 15.4215 57.0674C15.3651 56.729 15.5342 56.3559 15.5993 55.9957C15.9202 56.0782 16.2499 56.1433 16.5578 56.2561C16.7183 56.3125 16.8354 56.5251 16.9915 56.5511C18.6526 56.8462 20.3485 57.4579 21.9749 57.3147C24.4167 57.1021 26.7111 56.0825 28.7409 54.6507C29.2787 54.2732 29.6213 53.6181 30.1331 52.9976C28.5934 52.7156 28.3115 52.2123 29.0488 51.0669C29.4261 50.4811 30.068 49.8997 30.7143 49.6915C33.3946 48.828 35.7237 47.4787 37.8836 45.6564C40.2777 43.6388 43.4958 43.7473 46.1111 45.4351C47.0132 46.0208 48.0715 46.407 49.1124 46.7107C49.6285 46.8582 50.2791 46.676 50.8343 46.5198C51.5109 46.3245 52.0834 46.0078 52.465 46.997C52.5691 47.2747 53.2414 47.3355 53.7835 47.5481V31.937C53.2674 31.8719 52.8294 31.8155 52.2525 31.7418C53.1676 29.299 54.0481 26.9387 54.9329 24.5741C55.0283 24.5741 55.1194 24.5697 55.2148 24.5654C56.0996 26.9257 56.9843 29.286 57.9081 31.7461C57.2706 31.8155 56.7675 31.8676 56.2123 31.9283V47.3442C56.9757 47.3875 57.726 47.6739 58.0339 46.6066C58.073 46.4677 58.7149 46.3202 58.936 46.4373C60.3413 47.2097 61.6164 46.7628 62.8828 46.1206C63.3252 45.895 63.7373 45.613 64.1623 45.3613C67.1202 43.6084 69.8656 43.6865 72.559 45.8603C74.5714 47.483 76.6403 48.8671 79.1775 49.5656C79.9278 49.7695 80.6695 50.5202 81.1162 51.21C81.8101 52.2861 81.5369 52.6809 79.9061 52.9065L79.8974 52.9109ZM86.5766 59.6707C86.1516 59.5449 85.8957 59.4277 85.6355 59.3974C81.68 58.9114 78.2146 57.3147 75.2047 54.7332C74.9271 54.4945 74.6365 54.0433 74.6625 53.7135C74.7796 52.0214 74.4196 51.1233 72.8886 50.4941C70.616 49.5613 68.2913 48.7413 65.8451 50.0386C65.5805 50.1817 65.2119 50.1167 64.9213 50.2295C64.4225 50.4204 63.9151 50.62 63.4727 50.9107C62.9175 51.2708 62.4795 51.8522 61.8896 52.1082C60.6926 52.6288 60.3326 52.3728 60.1895 51.0625C60.1114 50.3683 59.7775 49.9952 59.0965 50.0429C58.151 50.1036 57.2099 50.2295 56.1603 50.3379C56.1603 50.7762 56.1603 51.1927 56.1603 51.6092C56.1646 60.0656 56.169 68.5262 56.1776 76.9826C56.1776 79.1129 55.8653 81.304 57.5048 83.148C67.0855 75.4119 76.7704 67.5891 86.5766 59.6707ZM23.7228 59.5709C33.5031 67.4806 43.1922 75.3165 53.0028 83.2565C53.3281 81.9592 53.8139 80.9136 53.8226 79.8636C53.9093 70.3052 53.918 60.7467 53.9397 51.184C53.9397 50.8759 53.8573 50.5722 53.8095 50.2512C52.9508 50.1948 52.1744 50.147 51.3981 50.0906C50.4786 50.0212 49.8628 50.2512 49.9365 51.3576C49.9929 52.1819 49.4377 52.5247 48.7741 52.26C48.0455 51.9737 47.4383 51.4009 46.7487 50.9931C46.2326 50.6894 45.6861 50.4334 45.1353 50.1991C44.849 50.0776 44.4847 50.121 44.2071 49.9865C41.7003 48.7629 39.3495 49.5786 37.0595 50.5896C35.689 51.1927 35.303 52.1646 35.4331 53.6745C35.4591 53.9695 35.2986 54.3817 35.0818 54.5813C33.3946 56.1259 31.5557 57.4753 29.3351 58.1348C27.5438 58.6641 25.7136 59.0633 23.7141 59.5666L23.7228 59.5709Z" fill="white"/>
<path d="M86.5722 59.6707C76.7659 67.589 67.0811 75.4119 57.5003 83.148C55.8609 81.3084 56.1732 79.1129 56.1732 76.9826C56.1645 68.5262 56.1602 60.0655 56.1558 51.6092C56.1558 51.1927 56.1558 50.7718 56.1558 50.3379C57.2054 50.2294 58.1466 50.1036 59.0921 50.0429C59.773 49.9995 60.107 50.3726 60.185 51.0625C60.3282 52.3728 60.6881 52.6288 61.8852 52.1081C62.475 51.8522 62.9131 51.2707 63.4682 50.9106C63.9106 50.6199 64.4181 50.4203 64.9169 50.2294C65.2074 50.121 65.5761 50.1817 65.8407 50.0385C68.2868 48.7412 70.6159 49.5569 72.8842 50.4941C74.4152 51.1232 74.7752 52.0214 74.6581 53.7135C74.6364 54.0433 74.9226 54.4945 75.2002 54.7331C78.2102 57.3147 81.6756 58.9114 85.631 59.3973C85.8956 59.4277 86.1472 59.5449 86.5722 59.6707Z" fill="#EC2F31"/>
<path d="M23.7188 59.5753C25.7182 59.072 27.5484 58.6728 29.3397 58.1435C31.5647 57.484 33.3993 56.139 35.0864 54.59C35.3033 54.3904 35.4637 53.9782 35.4376 53.6832C35.3119 52.1733 35.698 51.2014 37.0642 50.5983C39.3542 49.5873 41.7048 48.7716 44.2118 49.9952C44.4893 50.1297 44.8493 50.0863 45.1399 50.2078C45.6907 50.4378 46.2372 50.6981 46.7533 51.0018C47.4386 51.4053 48.0501 51.978 48.7788 52.2687C49.438 52.5291 49.9975 52.1906 49.9411 51.3663C49.8631 50.2599 50.4789 50.0256 51.4027 50.0993C52.1791 50.1601 52.9554 50.2035 53.8142 50.2599C53.8619 50.5766 53.9443 50.8846 53.9443 51.1927C53.9226 60.7511 53.914 70.3095 53.8272 79.8723C53.8185 80.9223 53.3328 81.9679 53.0075 83.2652C43.1925 75.3295 33.5077 67.4936 23.7275 59.5796L23.7188 59.5753Z" fill="#EC2F31"/>
</svg>
